<?xml version="1.0" encoding="UTF-8" standalone="no"?>
<svg
   xmlns:dc="http://purl.org/dc/elements/1.1/"
   xmlns:cc="http://creativecommons.org/ns#"
   xmlns:rdf="http://www.w3.org/1999/02/22-rdf-syntax-ns#"
   xmlns:svg="http://www.w3.org/2000/svg"
   xmlns="http://www.w3.org/2000/svg"
   xmlns:xlink="http://www.w3.org/1999/xlink"
   xmlns:sodipodi="http://sodipodi.sourceforge.net/DTD/sodipodi-0.dtd"
   xmlns:inkscape="http://www.inkscape.org/namespaces/inkscape"
   enable-background="new 0 0 512 512"
   version="1.1"
   viewBox="0 0 1024 500"
   xml:space="preserve"
   id="svg182"
   sodipodi:docname="1024x500.svg"
   width="1024"
   height="500"
   inkscape:version="0.92.2 5c3e80d, 2017-08-06"><metadata
     id="metadata186"><rdf:RDF><cc:Work
         rdf:about=""><dc:format>image/svg+xml</dc:format><dc:type
           rdf:resource="http://purl.org/dc/dcmitype/StillImage" /><dc:title></dc:title></cc:Work></rdf:RDF></metadata><sodipodi:namedview
     pagecolor="#ffffff"
     bordercolor="#666666"
     borderopacity="1"
     objecttolerance="10"
     gridtolerance="10"
     guidetolerance="10"
     inkscape:pageopacity="0"
     inkscape:pageshadow="2"
     inkscape:window-width="1132"
     inkscape:window-height="722"
     id="namedview184"
     showgrid="false"
     inkscape:zoom="0.43457604"
     inkscape:cx="523.02738"
     inkscape:cy="24"
     inkscape:window-x="74"
     inkscape:window-y="0"
     inkscape:window-maximized="0"
     inkscape:current-layer="svg182" /><defs
     id="defs100"><linearGradient
       id="c"><stop
         stop-color="#646464"
         offset="0"
         id="stop2" /><stop
         stop-color="#e1e1e1"
         offset="1"
         id="stop4" /></linearGradient><linearGradient
       id="a"
       x1="98.660004"
       x2="140.98"
       y1="7.7561002"
       y2="77.632004"
       gradientTransform="scale(0.99763,1.0024)"
       gradientUnits="userSpaceOnUse"><stop
         stop-color="#3c3c3c"
         offset="0"
         id="stop7" /><stop
         stop-color="#010101"
         offset="1"
         id="stop9" /></linearGradient><linearGradient
       id="b"
       x1="91.343002"
       x2="140.91"
       y1="7.6370001"
       y2="73.924004"
       gradientTransform="scale(0.99781,1.0022)"
       gradientUnits="userSpaceOnUse"
       xlink:href="#c"><stop
         stop-color="#646464"
         offset="0"
         id="stop12" /><stop
         stop-color="#e1e1e1"
         offset="1"
         id="stop14" /></linearGradient><linearGradient
       id="r"
       x1="131.97"
       x2="85.398003"
       y1="-8.8752003"
       y2="202.59"
       gradientUnits="userSpaceOnUse"><stop
         stop-color="#505050"
         offset="0"
         id="stop17" /><stop
         offset="1"
         id="stop19" /></linearGradient><linearGradient
       id="q"
       x1="281.75"
       x2="285.95999"
       y1="159.47"
       y2="409.12"
       gradientTransform="matrix(0.99511,0,0,1,-134.75,-135)"
       gradientUnits="userSpaceOnUse"><stop
         offset="0"
         id="stop22" /><stop
         stop-color="#515151"
         offset="1"
         id="stop24" /></linearGradient><linearGradient
       id="p"
       x1="125.5"
       x2="114.87"
       y1="99.637001"
       y2="208.83"
       gradientUnits="userSpaceOnUse"><stop
         stop-color="#282828"
         offset="0"
         id="stop27" /><stop
         stop-color="#141414"
         offset="1"
         id="stop29" /></linearGradient><linearGradient
       id="o"
       x1="91.343002"
       x2="140.91"
       y1="7.6370001"
       y2="73.924004"
       gradientTransform="scale(0.99781,1.0022)"
       gradientUnits="userSpaceOnUse"
       xlink:href="#b" /><linearGradient
       id="n"
       x1="98.660004"
       x2="140.98"
       y1="7.7561002"
       y2="77.632004"
       gradientTransform="scale(0.99763,1.0024)"
       gradientUnits="userSpaceOnUse"
       xlink:href="#a" /><linearGradient
       id="m"
       x1="50.994999"
       x2="191"
       y1="120"
       y2="120"
       gradientTransform="rotate(22.5,106.97,47.422)"
       gradientUnits="userSpaceOnUse"><stop
         stop-color="#e1e1e1"
         offset="0"
         id="stop34" /><stop
         stop-color="#707070"
         offset="1"
         id="stop36" /></linearGradient><linearGradient
       id="l"
       x1="186.2"
       x2="324.72"
       y1="135.59"
       y2="375.32001"
       gradientTransform="matrix(0.99511,0,0,1,-124.74,-179.55)"
       gradientUnits="userSpaceOnUse"
       xlink:href="#c" /><linearGradient
       id="k"
       x1="97.391998"
       x2="141.89999"
       y1="127.02"
       y2="199.03999"
       gradientTransform="translate(10.005,-44.547)"
       gradientUnits="userSpaceOnUse"><stop
         stop-color="#dfdfdf"
         offset="0"
         id="stop40" /><stop
         stop-color="#141414"
         offset="1"
         id="stop42" /></linearGradient><linearGradient
       id="j"
       x1="91.343002"
       x2="140.91"
       y1="7.6370001"
       y2="73.924004"
       gradientTransform="matrix(0.99781,0,0,1.0022,10.005,-44.547)"
       gradientUnits="userSpaceOnUse"
       xlink:href="#b" /><linearGradient
       id="i"
       x1="98.660004"
       x2="140.98"
       y1="7.7561002"
       y2="77.632004"
       gradientTransform="matrix(0.99763,0,0,1.0024,10.005,-44.547)"
       gradientUnits="userSpaceOnUse"
       xlink:href="#a" /><linearGradient
       id="h"
       x1="195.10001"
       x2="48.876999"
       y1="216.63"
       y2="99.162003"
       gradientTransform="rotate(-178.5,137.36,61.883)"
       gradientUnits="userSpaceOnUse"><stop
         stop-color="#dff2c0"
         offset="0"
         id="stop47" /><stop
         stop-color="#b3e16b"
         offset="1"
         id="stop49" /></linearGradient><linearGradient
       id="g"
       x1="340.32001"
       x2="172.48"
       y1="359.79001"
       y2="160.47"
       gradientTransform="matrix(0.99511,0,0,1,-411.76,-255.13)"
       gradientUnits="userSpaceOnUse"><stop
         stop-color="#a2d948"
         offset="0"
         id="stop52" /><stop
         stop-color="#e9f6d5"
         offset="1"
         id="stop54" /></linearGradient><linearGradient
       id="f"
       x1="146.22"
       x2="93.332001"
       y1="198.7"
       y2="137.47"
       gradientTransform="translate(-277.02,-120.13)"
       gradientUnits="userSpaceOnUse"><stop
         stop-color="#e9f6d5"
         offset="0"
         id="stop57" /><stop
         stop-color="#a2d948"
         offset="1"
         id="stop59" /></linearGradient><linearGradient
       id="e"
       x1="91.343002"
       x2="140.91"
       y1="7.6370001"
       y2="73.924004"
       gradientTransform="matrix(0.99781,0,0,1.0022,-276.3,-120.15)"
       gradientUnits="userSpaceOnUse"
       xlink:href="#b" /><linearGradient
       id="d"
       x1="98.660004"
       x2="140.98"
       y1="7.7561002"
       y2="77.632004"
       gradientTransform="matrix(0.99763,0,0,1.0024,-276.3,-120.15)"
       gradientUnits="userSpaceOnUse"
       xlink:href="#a" /><linearGradient
       id="ad"
       x1="80.456001"
       x2="175.81"
       y1="255.11"
       y2="77.117996"
       gradientTransform="matrix(-0.024364,0.074313,-0.068801,-0.026316,29.823,18.02)"
       gradientUnits="userSpaceOnUse"><stop
         stop-color="#c1e3f1"
         offset="0"
         id="stop64" /><stop
         stop-color="#82c7e3"
         offset="1"
         id="stop66" /></linearGradient><linearGradient
       id="ac"
       x1="387.25"
       x2="196.64999"
       y1="172.75"
       y2="387.51001"
       gradientTransform="matrix(0.077823,0,0,0.073662,-4.3574,-43.954)"
       gradientUnits="userSpaceOnUse"><stop
         stop-color="#eaf6fa"
         offset="0"
         id="stop69" /><stop
         stop-color="#44acd5"
         offset="1"
         id="stop71" /></linearGradient><linearGradient
       id="ab"
       x1="89.660004"
       x2="148.78999"
       y1="202.53"
       y2="127.66"
       gradientTransform="matrix(0.078205,0,0,0.073662,6.1804,-34.009)"
       gradientUnits="userSpaceOnUse"><stop
         stop-color="#eaf6fa"
         offset="0"
         id="stop74" /><stop
         stop-color="#44acd5"
         offset="1"
         id="stop76" /></linearGradient><linearGradient
       id="aa"
       x1="91.343002"
       x2="140.91"
       y1="7.6370001"
       y2="73.924004"
       gradientTransform="matrix(0.99781,0,0,1.0022,-92.693,-216.77)"
       gradientUnits="userSpaceOnUse"
       xlink:href="#b" /><linearGradient
       id="z"
       x1="98.660004"
       x2="140.98"
       y1="7.7561002"
       y2="77.632004"
       gradientTransform="matrix(0.99763,0,0,1.0024,-92.693,-216.77)"
       gradientUnits="userSpaceOnUse"
       xlink:href="#a" /><linearGradient
       id="y"
       x1="91.343002"
       x2="140.91"
       y1="7.6370001"
       y2="73.924004"
       gradientTransform="matrix(1.170504,0,0,1.2697337,-401.28687,-315.25285)"
       gradientUnits="userSpaceOnUse"
       xlink:href="#b" /><linearGradient
       id="x"
       x1="98.660004"
       x2="140.98"
       y1="7.7561002"
       y2="77.632004"
       gradientTransform="matrix(1.170279,0,0,1.2699775,-401.28687,-315.25285)"
       gradientUnits="userSpaceOnUse"
       xlink:href="#a" /><linearGradient
       id="w"
       x1="195.35001"
       x2="41.987"
       y1="68.343002"
       y2="206.32001"
       gradientTransform="matrix(-0.020729,-0.075588,0.069982,-0.02239,23.418,35.541)"
       gradientUnits="userSpaceOnUse"><stop
         stop-color="#f7a1c0"
         offset="0"
         id="stop83" /><stop
         stop-color="#f471a1"
         offset="1"
         id="stop85" /></linearGradient><linearGradient
       id="v"
       x1="340.32001"
       x2="172.48"
       y1="359.79001"
       y2="160.47"
       gradientTransform="matrix(0.077996,0,0,0.073476,-51.625,3.2278)"
       gradientUnits="userSpaceOnUse"><stop
         stop-color="#fde7ef"
         offset="0"
         id="stop88" /><stop
         stop-color="#f04080"
         offset="1"
         id="stop90" /></linearGradient><linearGradient
       id="u"
       x1="146.22"
       x2="93.332001"
       y1="198.7"
       y2="137.47"
       gradientTransform="matrix(0.078379,0,0,0.073476,-41.063,13.147)"
       gradientUnits="userSpaceOnUse"><stop
         stop-color="#f04080"
         offset="0"
         id="stop93" /><stop
         stop-color="#fde7ef"
         stop-opacity=".94118"
         offset="1"
         id="stop95" /></linearGradient><linearGradient
       id="t"
       x1="91.343002"
       x2="140.91"
       y1="7.6370001"
       y2="73.924004"
       gradientTransform="matrix(1.2569369,0,0,1.1834467,-483.53464,126.5137)"
       gradientUnits="userSpaceOnUse"
       xlink:href="#b" /><linearGradient
       id="s"
       x1="98.660004"
       x2="140.98"
       y1="7.7561002"
       y2="77.632004"
       gradientTransform="matrix(1.2566932,0,0,1.1836717,-483.53464,126.5137)"
       gradientUnits="userSpaceOnUse"
       xlink:href="#a" /></defs><rect
     style="opacity:1;fill:#bb0000;fill-opacity:1;stroke:none;stroke-width:12.15866947;stroke-linecap:square;stroke-miterlimit:4;stroke-dasharray:none;stroke-opacity:1"
     id="rect993"
     width="858.30774"
     height="383.91183"
     x="0.75031346"
     y="-386.8757"
     transform="scale(1,-1)" /><rect
     transform="scale(1,-1)"
     y="-502.30112"
     x="196.34325"
     height="308.3465"
     width="828.39355"
     id="rect995"
     style="opacity:0.526;fill:#00bb00;fill-opacity:1;stroke:none;stroke-width:10.70499992;stroke-linecap:square;stroke-miterlimit:4;stroke-dasharray:none;stroke-opacity:1" /><rect
     style="opacity:1;fill:#ffffff;fill-opacity:1;stroke:none;stroke-width:9.05567265;stroke-linecap:square;stroke-miterlimit:4;stroke-dasharray:none;stroke-opacity:1"
     id="rect997"
     width="717.9411"
     height="193.29184"
     x="142.66777"
     y="193.95461" /><g
     id="g1039"><g
       id="g116"
       transform="matrix(1.0542732,0.55543029,-0.51419911,1.1387793,156.44142,148.7455)"><g
         id="g110"><path
           style="fill:url(#m)"
           inkscape:connector-curvature="0"
           id="path102"
           d="m 128.29,5.5332 c -16.741,-3.4631 -32.841,2.0451 -44.183,15.185 -1.3904,1.5604 -4.5448,5.9683 -7.0343,9.7971 -4.9978,7.7033 -13.554,20.662 -25.216,38.423 -4.2687,6.4565 -12.984,19.67 -19.341,29.373 -6.3577,9.7035 -12.844,19.461 -14.298,21.689 -15.59,23.397 -19.269,51.781 -9.5742,73.795 7.713,17.561 22.973,31.786 40.796,38.154 25.297,8.9828 48.937,4.5154 69.175,-13.164 7.0469,-6.1068 13.22,-14.338 17.896,-23.83 4.8723,-9.8381 4.7288,-9.3635 13.178,-57.989 4.7565,-27.136 9.0716,-52.053 11.844,-67.727 1.0712,-6.1787 2.0326,-12.99 2.1717,-15.122 0.96165,-16.692 -5.2875,-31.243 -17.28,-40.27 -4.2797,-3.2681 -13.039,-7.27 -18.134,-8.3125 z m 8.355,16.011 c 9.6215,6.2818 15.227,18.538 13.719,29.876 -0.56923,4.197 -2.9634,10.362 -5.3584,13.963 -5.7307,8.5747 -17.495,14.009 -28.441,13.107 -3.965,-0.30718 -11.707,-3.3003 -15.004,-5.734 -2.8355,-2.1358 -6.8246,-6.6187 -8.7497,-9.9262 -1.925,-3.3075 -3.5523,-9.0018 -3.8751,-13.355 -0.36472,-5.2781 0.4767,-9.3624 3.1393,-15.149 1.9375,-4.1643 2.7572,-5.3735 5.2207,-7.9848 10.398,-10.861 26.96,-12.866 39.348,-4.797 z" /><path
           style="fill:url(#linearGradient13502)"
           inkscape:connector-curvature="0"
           id="path104"
           d="m 126.99,6.0763 c -16.741,-3.4631 -32.841,2.0451 -44.183,15.185 -1.3904,1.5604 -4.5448,5.9683 -7.0343,9.7971 -4.9978,7.7033 -13.554,20.662 -25.216,38.423 -4.2687,6.4565 -12.984,19.67 -19.341,29.373 -6.3577,9.7035 -12.844,19.461 -14.298,21.689 -15.59,23.397 -19.269,51.781 -9.5742,73.795 7.713,17.561 22.973,31.786 40.796,38.154 25.297,8.9829 48.937,4.5154 69.175,-13.164 7.0469,-6.1068 13.22,-14.338 17.896,-23.83 4.8723,-9.8381 4.7288,-9.3635 13.178,-57.989 4.7565,-27.136 9.0716,-52.053 11.844,-67.727 1.0712,-6.1787 2.0326,-12.99 2.1717,-15.122 0.96166,-16.692 -5.2875,-31.243 -17.28,-40.27 -4.2797,-3.2681 -13.039,-7.27 -18.134,-8.3125 z m 8.355,16.011 c 9.6215,6.2818 15.227,18.538 13.719,29.876 -0.56924,4.197 -2.9634,10.362 -5.3584,13.963 -5.7307,8.5747 -17.495,14.009 -28.441,13.107 -3.965,-0.30718 -11.707,-3.3003 -15.004,-5.734 -2.8355,-2.1358 -6.8246,-6.6187 -8.7497,-9.9262 -1.925,-3.3075 -3.5523,-9.0018 -3.8751,-13.355 -0.36472,-5.2781 0.4767,-9.3624 3.1393,-15.149 1.9375,-4.1643 2.7572,-5.3735 5.2207,-7.9848 10.398,-10.861 26.96,-12.866 39.348,-4.797 z" /><ellipse
           style="fill:#b3b3b3"
           id="ellipse106"
           ry="45.5"
           rx="45.278"
           cy="121.48"
           cx="128.81"
           transform="rotate(22.5)" /><ellipse
           style="fill:url(#l);stroke:url(#k);stroke-width:1.20000005;stroke-linecap:square"
           id="ellipse108"
           ry="40.57"
           rx="40.372002"
           cy="121.28"
           cx="129.31"
           transform="rotate(22.5)" /></g><ellipse
         style="fill:none;stroke:url(#j);stroke-width:7.36180019;stroke-linecap:square"
         id="ellipse112"
         ry="31.309999"
         rx="31.157"
         cy="-1.9026"
         cx="128.03999"
         transform="rotate(22.5)" /><ellipse
         style="fill:none;stroke:url(#i);stroke-width:2.11310005;stroke-linecap:square"
         id="ellipse114"
         ry="33.941002"
         rx="33.775002"
         cy="-1.7753"
         cx="128.10001"
         transform="rotate(22.5)" /></g><g
       id="g126"
       transform="matrix(16.071347,0,0,16.071722,-127.99935,-143.439)"><path
         style="fill:url(#ad)"
         inkscape:connector-curvature="0"
         id="path118"
         d="m 27.089,26.227 c 0.18846,-1.3323 -0.27451,-2.577 -1.2756,-3.4157 -0.11904,-0.10302 -0.45237,-0.33318 -0.74095,-0.51336 -0.58056,-0.36168 -1.5578,-0.98183 -2.8968,-1.8266 -0.4869,-0.30943 -1.4833,-0.94101 -2.2148,-1.4015 -0.73155,-0.46049 -1.4675,-0.93087 -1.6354,-1.0362 -1.7649,-1.1308 -3.8477,-1.3034 -5.4152,-0.44927 -1.2505,0.67967 -2.2291,1.9397 -2.6251,3.3692 -0.5581,2.0286 -0.14218,3.8713 1.2238,5.3916 0.47203,0.52958 1.0956,0.98161 1.8053,1.3106 0.73569,0.34299 0.70054,0.33365 4.277,0.79821 1.9961,0.2625 3.8286,0.49942 4.9817,0.65302 0.45444,0.05884 0.9546,0.10643 1.1105,0.10858 1.2203,0.0068 2.257,-0.54518 2.8691,-1.5265 0.22186,-0.35041 0.48009,-1.0565 0.5366,-1.4619 z m -1.1351,0.72382 c -0.42111,0.78339 -1.293,1.2753 -2.1252,1.2034 -0.30808,-0.0275 -0.76656,-0.19055 -1.0382,-0.36426 -0.64688,-0.41578 -1.0879,-1.3195 -1.064,-2.185 0.0073,-0.31342 0.19583,-0.93526 0.36062,-1.2048 0.14484,-0.23204 0.45635,-0.56459 0.69007,-0.72979 0.23372,-0.1652 0.64254,-0.3168 0.95858,-0.36018 0.38332,-0.0505 0.68422,-10e-4 1.1162,0.18465 0.31092,0.13535 0.40219,0.1949 0.60193,0.37806 0.83132,0.77377 1.0407,2.0694 0.49995,3.078 z" /><path
         style="fill:url(#linearGradient13502)"
         inkscape:connector-curvature="0"
         id="path120"
         d="m 27.044,26.127 c 0.18846,-1.3323 -0.27451,-2.577 -1.2756,-3.4157 -0.11904,-0.10302 -0.45237,-0.33318 -0.74096,-0.51336 -0.58056,-0.36168 -1.5578,-0.98182 -2.8968,-1.8266 -0.4869,-0.30942 -1.4833,-0.94101 -2.2148,-1.4015 -0.73155,-0.46049 -1.4675,-0.93087 -1.6354,-1.0362 -1.7649,-1.1308 -3.8477,-1.3034 -5.4152,-0.44927 -1.2505,0.67967 -2.2291,1.9397 -2.6251,3.3692 -0.55811,2.0286 -0.14218,3.8713 1.2238,5.3916 0.47203,0.52959 1.0956,0.98161 1.8053,1.3106 0.73568,0.34299 0.70054,0.33365 4.277,0.79821 1.9961,0.2625 3.8286,0.49942 4.9817,0.65301 0.45444,0.05884 0.9546,0.10643 1.1105,0.10858 1.2203,0.0068 2.257,-0.54517 2.8691,-1.5265 0.22186,-0.35042 0.48009,-1.0565 0.5366,-1.4619 z m -1.1351,0.72382 c -0.42111,0.78339 -1.293,1.2753 -2.1252,1.2034 -0.30808,-0.0275 -0.76656,-0.19054 -1.0382,-0.36426 -0.64687,-0.41578 -1.0879,-1.3195 -1.064,-2.185 0.0073,-0.31342 0.19583,-0.93526 0.36062,-1.2048 0.14484,-0.23204 0.45635,-0.56459 0.69007,-0.72979 0.23372,-0.1652 0.64254,-0.3168 0.95858,-0.36018 0.38331,-0.05049 0.68422,-0.001 1.1162,0.18465 0.31093,0.13535 0.4022,0.1949 0.60193,0.37806 0.83132,0.77378 1.0408,2.0694 0.49995,3.078 z" /><ellipse
         style="fill:#acdaec"
         id="ellipse122"
         ry="3.3515999"
         rx="3.5409"
         cy="-21.763"
         cx="15.475"
         transform="matrix(-0.31154,0.95023,-0.93401,-0.35725,0,0)" /><ellipse
         style="fill:url(#ac);stroke:url(#ab);stroke-width:0.091079;stroke-linecap:square"
         id="ellipse124"
         ry="2.9885001"
         rx="3.1573"
         cy="-21.794001"
         cx="15.51"
         transform="matrix(-0.31154,0.95023,-0.93401,-0.35725,0,0)" /></g><g
       id="g146"
       transform="matrix(1.172998,0,0,1.2670103,75.32905,165.20797)"><ellipse
         style="fill:none;stroke:url(#aa);stroke-width:7.36180019;stroke-linecap:square"
         id="ellipse128"
         ry="31.309999"
         rx="31.157"
         cy="-174.13"
         cx="25.344999"
         transform="rotate(109.5)" /><ellipse
         style="fill:none;stroke:url(#z);stroke-width:2.11310005;stroke-linecap:square"
         id="ellipse130"
         ry="33.941002"
         rx="33.775002"
         cy="-174"
         cx="25.400999"
         transform="rotate(109.5)" /><g
         id="g140"><path
           style="fill:url(#h)"
           inkscape:connector-curvature="0"
           id="path132"
           d="m 162.47,123.88 c 16.87,-2.7665 29.927,-13.678 35.806,-30.01 0.73883,-1.955 2.1041,-7.2006 3.0561,-11.667 1.9052,-8.9827 5.2493,-24.147 9.7714,-44.907 1.6714,-7.5574 5.0724,-23.016 7.5304,-34.354 2.458,-11.337 5.0168,-22.771 5.5761,-25.372 6.1703,-27.43 -0.56711,-55.247 -17.507,-72.324 -13.494,-13.631 -32.838,-21.442 -51.76,-21 -26.836,0.67933 -47.305,13.322 -59.862,37.08 -4.3904,8.2266 -7.2036,18.123 -8.1672,28.661 -1.023,10.931 -1.0592,10.436 8.4786,58.86 5.2842,27.039 10.185,51.846 13.214,67.473 1.2142,6.1522 2.7577,12.856 3.3919,14.896 5.084,15.928 16.133,27.273 30.563,31.403 5.1667,1.5173 14.778,2.1145 19.908,1.2617 z m -13.538,-11.954 c -11.234,-2.4166 -20.859,-11.849 -23.515,-22.975 -0.97264,-4.1222 -0.9468,-10.736 -0.001,-14.956 2.2772,-10.059 11.312,-19.348 21.855,-22.429 3.8117,-1.1342 12.112,-1.1142 16.062,-0.02363 3.4126,0.97781 8.7433,3.7334 11.726,6.1313 2.9825,2.3979 6.5423,7.1309 8.4036,11.079 2.232,4.7968 2.9101,8.9114 2.4981,15.268 -0.31645,4.582 -0.64841,6.0047 -2.0124,9.3254 -5.8151,13.865 -20.558,21.673 -35.016,18.58 z" /><path
           style="fill:url(#linearGradient13502)"
           inkscape:connector-curvature="0"
           id="path134"
           d="m 163.49,122.91 c 16.87,-2.7665 29.927,-13.678 35.806,-30.01 0.73883,-1.955 2.1041,-7.2006 3.0561,-11.667 1.9052,-8.9827 5.2493,-24.147 9.7714,-44.907 1.6714,-7.5574 5.0723,-23.016 7.5304,-34.354 2.458,-11.337 5.0168,-22.771 5.5761,-25.372 6.1703,-27.43 -0.56711,-55.247 -17.507,-72.324 -13.494,-13.631 -32.838,-21.442 -51.76,-21 -26.836,0.67931 -47.305,13.322 -59.862,37.08 -4.3904,8.2266 -7.2036,18.123 -8.1672,28.661 -1.023,10.931 -1.0592,10.436 8.4786,58.86 5.2842,27.039 10.185,51.846 13.214,67.473 1.2142,6.1522 2.7577,12.856 3.392,14.896 5.084,15.928 16.133,27.273 30.563,31.403 5.1667,1.5173 14.778,2.1145 19.908,1.2617 z m -13.538,-11.954 c -11.234,-2.4166 -20.859,-11.849 -23.515,-22.975 -0.97263,-4.1222 -0.94681,-10.736 -10e-4,-14.956 2.2772,-10.059 11.312,-19.348 21.855,-22.429 3.8117,-1.1342 12.112,-1.1142 16.062,-0.02363 3.4126,0.97781 8.7433,3.7334 11.726,6.1313 2.9825,2.3979 6.5423,7.1309 8.4036,11.079 2.232,4.7969 2.9101,8.9114 2.4981,15.268 -0.31645,4.582 -0.64841,6.0047 -2.0124,9.3254 -5.8151,13.865 -20.558,21.673 -35.016,18.58 z" /><ellipse
           style="fill:#e9f6d5"
           id="ellipse136"
           ry="45.5"
           rx="45.278"
           cy="45.875999"
           cx="-157.49001"
           transform="rotate(-178.5)" /><ellipse
           style="fill:url(#g);stroke:url(#f);stroke-width:1.20000005;stroke-linecap:square"
           id="ellipse138"
           ry="40.57"
           rx="40.372002"
           cy="45.696999"
           cx="-157.72"
           transform="rotate(-178.5)" /></g><ellipse
         style="fill:none;stroke:url(#e);stroke-width:7.36180019;stroke-linecap:square"
         id="ellipse142"
         ry="31.309999"
         rx="31.157"
         cy="-77.503998"
         cx="-158.25999"
         transform="rotate(-178.5)" /><ellipse
         style="fill:none;stroke:url(#d);stroke-width:2.11310005;stroke-linecap:square"
         id="ellipse144"
         ry="33.941002"
         rx="33.775002"
         cy="-77.376999"
         cx="-158.2"
         transform="rotate(-178.5)" /></g><ellipse
       style="fill:none;stroke:url(#y);stroke-width:8.9748745;stroke-linecap:square"
       id="ellipse148"
       ry="39.66758"
       rx="36.549305"
       cy="-261.23373"
       cx="-262.81839"
       transform="matrix(-0.99960021,-0.02827401,0.02423491,-0.99970629,0,0)" /><ellipse
       style="fill:none;stroke:url(#x);stroke-width:2.57606268;stroke-linecap:square"
       id="ellipse150"
       ry="43.001335"
       rx="39.620548"
       cy="-261.0466"
       cx="-262.76212"
       transform="matrix(-0.99960021,-0.02827401,0.02423491,-0.99970629,0,0)" /><g
       id="g160"
       transform="matrix(16.071347,0,0,16.071722,-127.99935,-143.439)"><path
         style="fill:url(#w)"
         inkscape:connector-curvature="0"
         id="path152"
         d="m 21.164,27.165 c 0.57254,1.1975 1.6245,1.9106 2.8907,1.9535 0.15237,0.0078 0.54728,-0.01766 0.87881,-0.0551 0.6665,-0.07598 1.7945,-0.19467 3.3376,-0.36137 0.5623,-0.05879 1.7121,-0.1804 2.5545,-0.2723 0.84242,-0.0919 1.6938,-0.17859 1.887,-0.20003 2.0432,-0.2056 3.8222,-1.3884 4.6255,-3.0746 0.64183,-1.3438 0.74778,-2.9844 0.29031,-4.3924 -0.65242,-1.9955 -1.9917,-3.2222 -3.9241,-3.5849 -0.67007,-0.12876 -1.4205,-0.09859 -2.1737,0.08586 -0.78183,0.18959 -0.74832,0.17483 -3.8945,2.0696 -1.7577,1.0549 -3.3692,2.0267 -4.3856,2.6345 -0.39967,0.24091 -0.8302,0.51996 -0.95753,0.61721 -0.99096,0.76921 -1.5293,1.874 -1.4905,3.0566 0.01121,0.42434 0.18653,1.1595 0.36144,1.5234 z m 0.52443,-1.3062 c -0.08562,-0.90113 0.35205,-1.8526 1.0645,-2.3228 0.26421,-0.17335 0.72385,-0.33252 1.0381,-0.36441 0.7496,-0.07431 1.5982,0.37681 2.0498,1.0922 0.1647,0.25816 0.35052,0.88097 0.36391,1.2037 0.0091,0.27968 -0.06196,0.74649 -0.16114,1.0285 -0.09919,0.28203 -0.34743,0.66424 -0.5795,0.89997 -0.28263,0.2842 -0.55294,0.43528 -1.0035,0.55924 -0.3252,0.0879 -0.43144,0.09767 -0.69271,0.0763 -1.0936,-0.09821 -1.9681,-1.0134 -2.0795,-2.1727 z" /><path
         style="fill:url(#linearGradient13502)"
         inkscape:connector-curvature="0"
         id="path154"
         d="m 21.255,27.218 c 0.57254,1.1975 1.6245,1.9106 2.8907,1.9535 0.15237,0.0078 0.54728,-0.01766 0.87881,-0.0551 0.6665,-0.07598 1.7945,-0.19468 3.3376,-0.36137 0.5623,-0.05879 1.7121,-0.1804 2.5545,-0.2723 0.84242,-0.0919 1.6938,-0.17859 1.887,-0.20003 2.0432,-0.2056 3.8222,-1.3884 4.6255,-3.0746 0.64183,-1.3438 0.74778,-2.9844 0.29031,-4.3924 -0.65242,-1.9955 -1.9917,-3.2222 -3.9241,-3.5849 -0.67007,-0.12876 -1.4205,-0.09859 -2.1737,0.08587 -0.78183,0.18959 -0.74832,0.17483 -3.8945,2.0696 -1.7577,1.0549 -3.3692,2.0267 -4.3856,2.6345 -0.39967,0.24091 -0.8302,0.51996 -0.95752,0.61721 -0.99096,0.76921 -1.5293,1.874 -1.4905,3.0565 0.01121,0.42434 0.18653,1.1595 0.36144,1.5234 z m 0.52443,-1.3062 c -0.08562,-0.90113 0.35205,-1.8526 1.0645,-2.3228 0.2642,-0.17335 0.72385,-0.33252 1.0381,-0.36441 0.7496,-0.07431 1.5982,0.37681 2.0498,1.0922 0.1647,0.25816 0.35052,0.88097 0.3639,1.2037 0.0091,0.27968 -0.06196,0.74649 -0.16114,1.0285 -0.09919,0.28203 -0.34743,0.66424 -0.5795,0.89997 -0.28263,0.2842 -0.55294,0.43528 -1.0035,0.55924 -0.3252,0.0879 -0.43144,0.09767 -0.69271,0.07629 -1.0936,-0.09821 -1.9681,-1.0134 -2.0795,-2.1727 z" /><ellipse
         style="fill:#f7a1c0"
         id="ellipse156"
         ry="3.3432"
         rx="3.5488"
         cy="25.395"
         cx="-31.711"
         transform="matrix(-0.26448,-0.96439,0.95244,-0.30473,0,0)" /><ellipse
         style="fill:url(#v);stroke:url(#u);stroke-width:0.091066;stroke-linecap:square"
         id="ellipse158"
         ry="2.9809999"
         rx="3.1643"
         cy="25.330999"
         cx="-31.712"
         transform="matrix(-0.26448,-0.96439,0.95244,-0.30473,0,0)" /></g><ellipse
       style="fill:none;stroke:url(#t);stroke-width:8.97879696;stroke-linecap:square"
       id="ellipse162"
       ry="36.973217"
       rx="39.249161"
       cy="176.8575"
       cx="-334.82935"
       transform="matrix(-0.264471,-0.96439364,0.95243599,-0.30473872,0,0)" /><ellipse
       style="fill:none;stroke:url(#s);stroke-width:2.57718301;stroke-linecap:square"
       id="ellipse164"
       ry="40.078224"
       rx="42.547268"
       cy="177.00755"
       cx="-334.77274"
       transform="matrix(-0.264471,-0.96439364,0.95243599,-0.30473872,0,0)" /><g
       id="g180"
       transform="matrix(0.77726116,-0.9489359,0.87852974,0.83954855,127.51021,344.62642)"><g
         id="g174"><path
           style="fill:url(#r)"
           inkscape:connector-curvature="0"
           id="path166"
           d="m 110.64,0.56427 c -16.792,3.2072 -29.558,14.457 -35.008,30.937 -0.6874,1.9737 -1.9149,7.2532 -2.7496,11.743 -1.6694,9.0295 -4.6154,24.276 -8.5925,45.147 -1.473,7.5986 -4.4681,23.141 -6.6285,34.539 -2.1604,11.398 -4.419,22.894 -4.91,25.51 -5.4501,27.582 2.0131,55.213 19.395,71.841 13.846,13.273 33.388,20.575 52.292,19.638 26.809,-1.3816 46.94,-14.556 58.871,-38.634 4.1735,-8.3387 6.7267,-18.306 7.4141,-28.865 0.7365,-10.954 0.7856,-10.46 -10.016,-58.618 -5.9902,-26.891 -11.539,-51.562 -14.976,-67.104 -1.3748,-6.1183 -3.0933,-12.779 -3.7807,-14.802 -5.4992,-15.789 -16.841,-26.842 -31.375,-30.592 -5.2046,-1.3816 -14.828,-1.727 -19.935,-0.74012 z m 13.846,11.595 c 11.293,2.1217 21.162,11.299 24.108,22.352 1.0802,4.0953 1.2275,10.707 0.3928,14.95 -2.0131,10.115 -10.802,19.638 -21.26,22.993 -3.7807,1.2335 -12.079,1.4309 -16.056,0.44407 -3.437,-0.88814 -8.838,-3.5032 -11.882,-5.8223 -3.0442,-2.319 -6.7267,-6.9572 -8.6907,-10.855 -2.3568,-4.7368 -3.1424,-8.8321 -2.8969,-15.197 0.1964,-4.5888 0.491,-6.0197 1.7676,-9.3749 5.4501,-14.013 19.984,-22.204 34.517,-19.49 z" /><path
           style="fill:url(#linearGradient13502)"
           inkscape:connector-curvature="0"
           id="path168"
           d="m 109.64,1.5643 c -16.792,3.2072 -29.558,14.457 -35.008,30.937 -0.6874,1.9737 -1.9149,7.2532 -2.7496,11.743 -1.6694,9.0295 -4.6154,24.276 -8.5925,45.147 -1.473,7.5986 -4.4681,23.141 -6.6285,34.539 -2.1604,11.398 -4.419,22.894 -4.91,25.51 -5.4501,27.582 2.0131,55.213 19.395,71.841 13.846,13.273 33.388,20.575 52.292,19.638 26.809,-1.3816 46.94,-14.556 58.871,-38.634 4.1735,-8.3387 6.7267,-18.306 7.4141,-28.865 0.7365,-10.954 0.7856,-10.46 -10.016,-58.618 -5.9902,-26.891 -11.539,-51.562 -14.976,-67.104 -1.3748,-6.1183 -3.0933,-12.779 -3.7807,-14.802 -5.4992,-15.789 -16.841,-26.842 -31.375,-30.592 -5.2046,-1.3816 -14.828,-1.727 -19.935,-0.74012 z m 13.846,11.595 c 11.293,2.1217 21.162,11.299 24.108,22.352 1.0802,4.0953 1.2275,10.707 0.3928,14.95 -2.0131,10.115 -10.802,19.638 -21.26,22.993 -3.7807,1.2335 -12.079,1.4309 -16.056,0.44407 -3.437,-0.88814 -8.838,-3.5032 -11.882,-5.8223 -3.0442,-2.319 -6.7267,-6.9572 -8.6907,-10.855 -2.3568,-4.7368 -3.1424,-8.8321 -2.8969,-15.197 0.1964,-4.5888 0.491,-6.0197 1.7676,-9.3749 5.4501,-14.013 19.984,-22.204 34.517,-19.49 z" /><ellipse
           style="fill:#323232"
           id="ellipse170"
           ry="45.5"
           rx="45.278"
           cy="166.02"
           cx="118.81" /><ellipse
           style="fill:url(#q);stroke:url(#p);stroke-width:1.20000005;stroke-linecap:square"
           id="ellipse172"
           ry="40.57"
           rx="40.372002"
           cy="165.83"
           cx="119.3" /></g><ellipse
         style="fill:none;stroke:url(#o);stroke-width:7.36180019;stroke-linecap:square"
         id="ellipse176"
         ry="31.309999"
         rx="31.157"
         cy="42.645"
         cx="118.04" /><ellipse
         style="fill:none;stroke:url(#n);stroke-width:2.11310005;stroke-linecap:square"
         id="ellipse178"
         ry="33.941002"
         rx="33.775002"
         cy="42.771999"
         cx="118.09" /></g></g><text
     xml:space="preserve"
     style="font-style:normal;font-variant:normal;font-weight:normal;font-stretch:normal;font-size:96px;line-height:1.25;font-family:Skia;-inkscape-font-specification:'Skia, Normal';font-variant-ligatures:normal;font-variant-caps:normal;font-variant-numeric:normal;font-feature-settings:normal;text-align:start;letter-spacing:0px;word-spacing:0px;writing-mode:lr-tb;text-anchor:start;fill:#000000;fill-opacity:1;stroke:none"
     x="464.82083"
     y="350.42892"
     id="text1043"><tspan
       sodipodi:role="line"
       id="tspan1041"
       x="464.82083"
       y="350.42892">iTag One</tspan></text>
</svg>