<?xml version="1.0" ?><svg enable-background="new 0 0 512 512" id="Layer_1" version="1.1" viewBox="0 0 512 512" xml:space="preserve" xmlns="http://www.w3.org/2000/svg" xmlns:xlink="http://www.w3.org/1999/xlink"><g><g><linearGradient gradientUnits="userSpaceOnUse" id="SVGID_1_" x1="-0.0000027" x2="512" y1="256" y2="256"><stop offset="0" style="stop-color:#B49A85"/><stop offset="0.0650802" style="stop-color:#B0957F"/><stop offset="0.2856463" style="stop-color:#A88A71"/><stop offset="0.5538635" style="stop-color:#A38369"/><stop offset="1" style="stop-color:#A18166"/></linearGradient><circle cx="256" cy="256" fill="url(#SVGID_1_)" r="256"/><linearGradient gradientUnits="userSpaceOnUse" id="SVGID_2_" x1="42.6666641" x2="469.3333435" y1="256.0005188" y2="256.0005188"><stop offset="0" style="stop-color:#A18166"/><stop offset="0.4461364" style="stop-color:#A38369"/><stop offset="0.7143537" style="stop-color:#A88A71"/><stop offset="0.9349198" style="stop-color:#B0957F"/><stop offset="1" style="stop-color:#B49A85"/></linearGradient><path d="M256,469.3338623c-117.631012,0-213.3333435-95.7018738-213.3333435-213.3333435    c0-117.6309204,95.7023239-213.333313,213.3333435-213.333313c117.6362,0,213.3333435,95.7024002,213.3333435,213.333313    C469.3333435,373.6319885,373.6362,469.3338623,256,469.3338623z" fill="url(#SVGID_2_)"/></g><path d="M228.8847198,285.5493469v34.813324L144,242.3226624l84.8847198-78.0399933   l0.0006104,39.2917328C317.5705872,203.5744019,384,243.6815948,384,332.3674622   c0,10.7285461-1.0518188,21.2112122-3.058197,31.3504028C380.941803,363.717865,330.6186523,285.5514526,228.8847198,285.5493469z" id="XMLID_78_" opacity="0.3"/><path d="M220.8847198,277.5493469v34.813324L136,234.3226624l84.8847198-78.0399933   l0.0006104,39.2917328C309.5705872,195.5744019,376,235.6815948,376,324.3674622   c0,10.7285461-1.0518188,21.2112122-3.058197,31.3504028C372.941803,355.717865,322.6186523,277.5514526,220.8847198,277.5493469z" fill="#FFFFFF" id="XMLID_2251_"/></g></svg>