<?xml version="1.0" ?><svg enable-background="new 0 0 512 512" id="Layer_1" version="1.1" viewBox="0 0 512 512" xml:space="preserve" xmlns="http://www.w3.org/2000/svg" xmlns:xlink="http://www.w3.org/1999/xlink"><g><g><linearGradient gradientUnits="userSpaceOnUse" id="SVGID_1_" x1="0.0000038" x2="512" y1="256" y2="256"><stop offset="0" style="stop-color:#00AEEE"/><stop offset="1" style="stop-color:#0095DA"/></linearGradient><circle cx="256" cy="256" fill="url(#SVGID_1_)" r="256"/><linearGradient gradientUnits="userSpaceOnUse" id="SVGID_2_" x1="42.6666679" x2="469.3333435" y1="256.0005188" y2="256.0005188"><stop offset="0" style="stop-color:#0095DA"/><stop offset="1" style="stop-color:#00AEEE"/></linearGradient><path d="M256,469.3338623c-117.6314697,0-213.3333282-95.7018738-213.3333282-213.3333435    c0-117.6309204,95.7018585-213.333313,213.3333282-213.333313c117.636261,0,213.3333435,95.7024002,213.3333435,213.333313    C469.3333435,373.6319885,373.636261,469.3338623,256,469.3338623z" fill="url(#SVGID_2_)"/></g><g><path d="M185.9722748,185.977066l-6.787735-6.787735C156.4944,201.8768005,144,231.9983978,144,264    s12.4944,62.1231995,35.1845398,84.8106689l6.787735-6.7872009C165.0960083,321.1450806,153.6000061,293.4373474,153.6000061,264    C153.6000061,234.5621338,165.0960083,206.8549347,185.9722748,185.977066z" opacity="0.3"/><path d="M348.8155823,179.1893311l-6.787323,6.787735    C362.9039917,206.8549347,374.3999939,234.5621338,374.3999939,264c0,29.4373474-11.4960022,57.1450806-32.3717346,78.023468    l6.787323,6.7872009C371.5055847,326.1231995,384,296.0015869,384,264S371.5055847,201.8768005,348.8155823,179.1893311z" opacity="0.3"/><path d="M206.081604,206.0810699l-6.787735-6.7872009    C181.9829407,216.6047974,172.4512024,239.5829315,172.4512024,264c0,24.412262,9.5317383,47.3909302,26.8426666,64.7061462    l6.787735-6.7872009C190.5845337,306.4170532,182.0512085,285.8485413,182.0512085,264    C182.0512085,242.1466675,190.5845337,221.5781403,206.081604,206.0810699z" opacity="0.3"/><path d="M328.706665,199.293869l-6.7877197,6.7872009    C337.4154663,221.5781403,345.9493408,242.1466675,345.9493408,264c0,21.8485413-8.5338745,42.4170532-24.0303955,57.9189453    l6.7877197,6.7872009C346.0176086,311.3909302,355.5493469,288.412262,355.5493469,264    C355.5493469,239.5829315,346.0176086,216.6047974,328.706665,199.293869z" opacity="0.3"/><path d="M219.4031982,219.4031982C207.470932,231.3327942,200.9013367,247.1674652,200.9013367,264    c0,16.8330688,6.5695953,32.6672058,18.5018616,44.5968018l6.7872009-6.7877197    C216.0730743,291.6938782,210.5013275,278.2645264,210.5013275,264c0-14.2640076,5.5717468-27.6938629,15.6890717-37.8090668    L219.4031982,219.4031982z" opacity="0.3"/><path d="M308.5968933,219.4031982l-6.7872925,6.787735    C311.9274597,236.3061371,317.4986572,249.7359924,317.4986572,264c0,14.2645264-5.5711975,27.6938782-15.6890564,37.809082    l6.7872925,6.7877197c11.9321594-11.9295959,18.50177-27.7637329,18.50177-44.5968018    C327.0986633,247.1674652,320.5290527,231.3327942,308.5968933,219.4031982z" opacity="0.3"/><circle cx="264.0001221" cy="263.9997253" opacity="0.3" r="29.8470669"/></g><g><path d="M177.9722748,177.977066l-6.787735-6.787735C148.4944,193.8768005,136,223.9983978,136,256    s12.4944,62.1231995,35.1845398,84.8106689l6.787735-6.7872009C157.0960083,313.1450806,145.6000061,285.4373474,145.6000061,256    C145.6000061,226.5621338,157.0960083,198.8549347,177.9722748,177.977066z" fill="#FFFFFF"/><path d="M340.8155823,171.1893311l-6.787323,6.787735    C354.9039917,198.8549347,366.3999939,226.5621338,366.3999939,256c0,29.4373474-11.4960022,57.1450806-32.3717346,78.023468    l6.787323,6.7872009C363.5055847,318.1231995,376,288.0015869,376,256S363.5055847,193.8768005,340.8155823,171.1893311z" fill="#FFFFFF"/><path d="M198.081604,198.0810699l-6.787735-6.7872009    C173.9829407,208.6047974,164.4512024,231.5829315,164.4512024,256c0,24.412262,9.5317383,47.3909302,26.8426666,64.7061462    l6.787735-6.7872009C182.5845337,298.4170532,174.0512085,277.8485413,174.0512085,256    C174.0512085,234.1466675,182.5845337,213.5781403,198.081604,198.0810699z" fill="#FFFFFF"/><path d="M320.706665,191.293869l-6.7877197,6.7872009    C329.4154663,213.5781403,337.9493408,234.1466675,337.9493408,256c0,21.8485413-8.5338745,42.4170532-24.0303955,57.9189453    l6.7877197,6.7872009C338.0176086,303.3909302,347.5493469,280.412262,347.5493469,256    C347.5493469,231.5829315,338.0176086,208.6047974,320.706665,191.293869z" fill="#FFFFFF"/><path d="M211.4031982,211.4031982C199.470932,223.3327942,192.9013367,239.1674652,192.9013367,256    c0,16.8330688,6.5695953,32.6672058,18.5018616,44.5968018l6.7872009-6.7877197    C208.0730743,283.6938782,202.5013275,270.2645264,202.5013275,256c0-14.2640076,5.5717468-27.6938629,15.6890717-37.8090668    L211.4031982,211.4031982z" fill="#FFFFFF"/><path d="M300.5968933,211.4031982l-6.7872925,6.787735    C303.9274597,228.3061371,309.4986572,241.7359924,309.4986572,256c0,14.2645264-5.5711975,27.6938782-15.6890564,37.809082    l6.7872925,6.7877197c11.9321594-11.9295959,18.50177-27.7637329,18.50177-44.5968018    C319.0986633,239.1674652,312.5290527,223.3327942,300.5968933,211.4031982z" fill="#FFFFFF"/><circle cx="256.0001221" cy="255.9997406" fill="#FFFFFF" r="29.8470669"/></g></g></svg>