<?xml version="1.0" ?><svg height="24px" version="1.1" viewBox="0 0 15 24" width="15px" xmlns="http://www.w3.org/2000/svg" xmlns:sketch="http://www.bohemiancoding.com/sketch/ns" xmlns:xlink="http://www.w3.org/1999/xlink"><title/><desc/><defs/><g fill="none" fill-rule="evenodd" id="Page-1" stroke="none" stroke-width="1"><g fill="#000000" id="Core" transform="translate(-551.000000, -378.000000)"><g id="settings-bluetooth" transform="translate(551.500000, 378.000000)"><path d="M6,24 L8,24 L8,22 L6,22 L6,24 L6,24 Z M2,24 L4,24 L4,22 L2,22 L2,24 L2,24 Z M10,24 L12,24 L12,22 L10,22 L10,24 L10,24 Z M12.7,5.7 L7,0 L6,0 L6,7.6 L1.4,3 L0,4.4 L5.6,10 L0,15.6 L1.4,17 L6,12.4 L6,20 L7,20 L12.7,14.3 L8.4,10 L12.7,5.7 L12.7,5.7 Z M8,3.8 L9.9,5.7 L8,7.6 L8,3.8 L8,3.8 Z M9.9,14.3 L8,16.2 L8,12.4 L9.9,14.3 L9.9,14.3 Z" id="Shape"/></g></g></g></svg>