<?xml version="1.0" ?><svg enable-background="new 0 0 512 512" id="Layer_1" version="1.1" viewBox="0 0 512 512" xml:space="preserve" xmlns="http://www.w3.org/2000/svg" xmlns:xlink="http://www.w3.org/1999/xlink"><g><g><linearGradient gradientUnits="userSpaceOnUse" id="SVGID_1_" x1="0.0000038" x2="512" y1="256" y2="256"><stop offset="0" style="stop-color:#00AEEE"/><stop offset="1" style="stop-color:#0095DA"/></linearGradient><circle cx="256" cy="256" fill="url(#SVGID_1_)" r="256"/><linearGradient gradientUnits="userSpaceOnUse" id="SVGID_2_" x1="42.6666679" x2="469.3333435" y1="256.0005188" y2="256.0005188"><stop offset="0" style="stop-color:#0095DA"/><stop offset="1" style="stop-color:#00AEEE"/></linearGradient><path d="M256,469.3338623c-117.6314697,0-213.3333282-95.7018738-213.3333282-213.3333435    c0-117.6309204,95.7018585-213.333313,213.3333282-213.333313c117.636261,0,213.3333435,95.7024002,213.3333435,213.333313    C469.3333435,373.6319885,373.636261,469.3338623,256,469.3338623z" fill="url(#SVGID_2_)"/></g><g><polygon opacity="0.3" points="379.6864014,210.6080017 263.9984131,144 148.3109283,210.6080017 263.9984131,277.2149353   "/><polygon opacity="0.3" points="382.1247864,265.4149475 377.2517395,256.9509277 263.997345,322.1589355 150.7482758,256.9509277     145.8751984,265.4149475 263.997345,333.4261475   "/><polygon opacity="0.3" points="263.997345,372.7327881 150.7482758,307.5274658 145.8751984,315.9909363 263.997345,384     382.1247864,315.9909363 377.2517395,307.5274658   "/></g><g><polygon fill="#FFFFFF" points="371.6864014,202.6080017 255.9983978,136 140.3109283,202.6080017 255.9983978,269.2149353   "/><polygon fill="#FFFFFF" points="374.1247864,257.4149475 369.2517395,248.9509277 255.9973297,314.1589355     142.7482758,248.9509277 137.8751984,257.4149475 255.9973297,325.4261475   "/><polygon fill="#FFFFFF" points="255.9973297,364.7327881 142.7482758,299.5274658 137.8751984,307.9909363 255.9973297,376     374.1247864,307.9909363 369.2517395,299.5274658   "/></g></g></svg>