<?xml version="1.0" encoding="UTF-8"?>
<svg id="Layer_1" enable-background="new 0 0 512 512" version="1.1" viewBox="0 0 48 48" xml:space="preserve" xmlns="http://www.w3.org/2000/svg" xmlns:cc="http://creativecommons.org/ns#" xmlns:dc="http://purl.org/dc/elements/1.1/" xmlns:rdf="http://www.w3.org/1999/02/22-rdf-syntax-ns#" xmlns:xlink="http://www.w3.org/1999/xlink"><metadata id="metadata29"><rdf:RDF><cc:Work rdf:about=""><dc:format>image/svg+xml</dc:format><dc:type rdf:resource="http://purl.org/dc/dcmitype/StillImage"/><dc:title/></cc:Work></rdf:RDF></metadata><defs id="defs27"><linearGradient id="ring"><stop id="stop7914" stop-color="#646464" offset="0"/><stop id="stop7916" stop-color="#e1e1e1" offset="1"/></linearGradient><linearGradient id="linearGradient7912" x1="215.53" x2="292.84" y1="137.86" y2="215.97" gradientTransform="matrix(.88052 0 0 .88484 -106.49 -114.86)" gradientUnits="userSpaceOnUse" xlink:href="#ring"/><linearGradient id="linearGradientOuterRing" x1="98.66" x2="140.98" y1="7.7561" y2="77.632" gradientTransform="scale(.99763 1.0024)" gradientUnits="userSpaceOnUse"><stop id="stop25" stop-color="#3c3c3c" offset="0"/><stop id="stop27" stop-color="#010101" offset="1"/></linearGradient><linearGradient id="linearGradient1667" x1="91.343" x2="140.91" y1="7.637" y2="73.924" gradientTransform="scale(.99781 1.0022)" gradientUnits="userSpaceOnUse" xlink:href="#ring"><stop id="stop35" stop-color="#646464" offset="0"/><stop id="stop37" stop-color="#e1e1e1" offset="1"/></linearGradient><linearGradient id="linearGradient880" x1="131.97" x2="85.398" y1="-8.8752" y2="202.59" gradientUnits="userSpaceOnUse"><stop id="stop40" stop-color="#505050" offset="0"/><stop id="stop42" offset="1"/></linearGradient><linearGradient id="linearGradient882" x1="281.75" x2="285.96" y1="159.47" y2="409.12" gradientTransform="matrix(.99511 0 0 1 -134.75 -135)" gradientUnits="userSpaceOnUse"><stop id="stop19" offset="0"/><stop id="stop21" stop-color="#515151" offset="1"/></linearGradient><linearGradient id="linearGradient884" x1="125.5" x2="114.87" y1="99.637" y2="208.83" gradientUnits="userSpaceOnUse"><stop id="stop30" stop-color="#282828" offset="0"/><stop id="stop32" stop-color="#141414" offset="1"/></linearGradient><linearGradient id="linearGradient886" x1="91.343" x2="140.91" y1="7.637" y2="73.924" gradientTransform="scale(.99781 1.0022)" gradientUnits="userSpaceOnUse" xlink:href="#linearGradient1667"/><linearGradient id="linearGradient888" x1="98.66" x2="140.98" y1="7.7561" y2="77.632" gradientTransform="scale(.99763 1.0024)" gradientUnits="userSpaceOnUse" xlink:href="#linearGradientOuterRing"/><linearGradient id="linearGradient890" x1="50.995" x2="191" y1="120" y2="120" gradientTransform="rotate(22.5 106.97 47.422)" gradientUnits="userSpaceOnUse"><stop id="stop906" stop-color="#e1e1e1" offset="0"/><stop id="stop908" stop-color="#707070" offset="1"/></linearGradient><linearGradient id="linearGradient892" x1="186.2" x2="324.72" y1="135.59" y2="375.32" gradientTransform="matrix(.99511 0 0 1 -124.74 -179.55)" gradientUnits="userSpaceOnUse" xlink:href="#ring"/><linearGradient id="linearGradient894" x1="97.392" x2="141.9" y1="127.02" y2="199.04" gradientTransform="translate(10.005 -44.547)" gradientUnits="userSpaceOnUse"><stop id="stop932" stop-color="#dfdfdf" offset="0"/><stop id="stop934" stop-color="#141414" offset="1"/></linearGradient><linearGradient id="linearGradient896" x1="91.343" x2="140.91" y1="7.637" y2="73.924" gradientTransform="matrix(.99781 0 0 1.0022 10.005 -44.547)" gradientUnits="userSpaceOnUse" xlink:href="#linearGradient1667"/><linearGradient id="linearGradient898" x1="98.66" x2="140.98" y1="7.7561" y2="77.632" gradientTransform="matrix(.99763 0 0 1.0024 10.005 -44.547)" gradientUnits="userSpaceOnUse" xlink:href="#linearGradientOuterRing"/><linearGradient id="linearGradient960" x1="195.1" x2="48.877" y1="216.63" y2="99.162" gradientTransform="rotate(181.5 137.36 61.883)" gradientUnits="userSpaceOnUse"><stop id="stop976" stop-color="#dff2c0" offset="0"/><stop id="stop978" stop-color="#b3e16b" offset="1"/></linearGradient><linearGradient id="linearGradient962" x1="340.32" x2="172.48" y1="359.79" y2="160.47" gradientTransform="matrix(.99511 0 0 1 -411.76 -255.13)" gradientUnits="userSpaceOnUse"><stop id="stop1025" stop-color="#a2d948" offset="0"/><stop id="stop1027" stop-color="#e9f6d5" offset="1"/></linearGradient><linearGradient id="linearGradient964" x1="146.22" x2="93.332" y1="198.7" y2="137.47" gradientTransform="translate(-277.02 -120.13)" gradientUnits="userSpaceOnUse"><stop id="stop1077" stop-color="#e9f6d5" offset="0"/><stop id="stop1079" stop-color="#a2d948" offset="1"/></linearGradient><linearGradient id="linearGradient966" x1="91.343" x2="140.91" y1="7.637" y2="73.924" gradientTransform="matrix(.99781 0 0 1.0022 -276.3 -120.15)" gradientUnits="userSpaceOnUse" xlink:href="#linearGradient1667"/><linearGradient id="linearGradient968" x1="98.66" x2="140.98" y1="7.7561" y2="77.632" gradientTransform="matrix(.99763 0 0 1.0024 -276.3 -120.15)" gradientUnits="userSpaceOnUse" xlink:href="#linearGradientOuterRing"/><linearGradient id="linearGradient1055" x1="80.456" x2="175.81" y1="255.11" y2="77.118" gradientTransform="matrix(-.024364 .074313 -.068801 -.026316 29.823 18.02)" gradientUnits="userSpaceOnUse"><stop id="stop1105" stop-color="#c1e3f1" offset="0"/><stop id="stop1107" stop-color="#82c7e3" offset="1"/></linearGradient><linearGradient id="linearGradient1057" x1="387.25" x2="196.65" y1="172.75" y2="387.51" gradientTransform="matrix(.077823 0 0 .073662 -4.3574 -43.954)" gradientUnits="userSpaceOnUse"><stop id="stop1099" stop-color="#eaf6fa" offset="0"/><stop id="stop1101" stop-color="#44acd5" offset="1"/></linearGradient><linearGradient id="linearGradient1059" x1="89.66" x2="148.79" y1="202.53" y2="127.66" gradientTransform="matrix(.078205 0 0 .073662 6.1804 -34.009)" gradientUnits="userSpaceOnUse"><stop id="stop1093" stop-color="#eaf6fa" offset="0"/><stop id="stop1095" stop-color="#44acd5" offset="1"/></linearGradient><linearGradient id="linearGradient1061" x1="91.343" x2="140.91" y1="7.637" y2="73.924" gradientTransform="matrix(.99781 0 0 1.0022 -92.693 -216.77)" gradientUnits="userSpaceOnUse" xlink:href="#linearGradient1667"/><linearGradient id="linearGradient1063" x1="98.66" x2="140.98" y1="7.7561" y2="77.632" gradientTransform="matrix(.99763 0 0 1.0024 -92.693 -216.77)" gradientUnits="userSpaceOnUse" xlink:href="#linearGradientOuterRing"/><linearGradient id="linearGradient1143" x1="91.343" x2="140.91" y1="7.637" y2="73.924" gradientTransform="matrix(.072832 0 0 .079004 -33.147 -28.311)" gradientUnits="userSpaceOnUse" xlink:href="#linearGradient1667"/><linearGradient id="linearGradient1145" x1="98.66" x2="140.98" y1="7.7561" y2="77.632" gradientTransform="matrix(.072818 0 0 .079019 -33.147 -28.311)" gradientUnits="userSpaceOnUse" xlink:href="#linearGradientOuterRing"/><linearGradient id="linearGradient1147" x1="195.35" x2="41.987" y1="68.343" y2="206.32" gradientTransform="matrix(-.020729 -.075588 .069982 -.02239 23.418 35.541)" gradientUnits="userSpaceOnUse"><stop id="stop1165" stop-color="#f7a1c0" offset="0"/><stop id="stop1167" stop-color="#f471a1" offset="1"/></linearGradient><linearGradient id="linearGradient1149" x1="340.32" x2="172.48" y1="359.79" y2="160.47" gradientTransform="matrix(.077996 0 0 .073476 -51.625 3.2278)" gradientUnits="userSpaceOnUse"><stop id="stop1183" stop-color="#fde7ef" offset="0"/><stop id="stop1185" stop-color="#f04080" offset="1"/></linearGradient><linearGradient id="linearGradient1151" x1="146.22" x2="93.332" y1="198.7" y2="137.47" gradientTransform="matrix(.078379 0 0 .073476 -41.063 13.147)" gradientUnits="userSpaceOnUse"><stop id="stop1171" stop-color="#f04080" offset="0"/><stop id="stop1173" stop-color="#fde7ef" stop-opacity=".94118" offset="1"/></linearGradient><linearGradient id="linearGradient1153" x1="91.343" x2="140.91" y1="7.637" y2="73.924" gradientTransform="matrix(.078208 0 0 .073637 -41.023 13.197)" gradientUnits="userSpaceOnUse" xlink:href="#linearGradient1667"/><linearGradient id="linearGradient1155" x1="98.66" x2="140.98" y1="7.7561" y2="77.632" gradientTransform="matrix(.078193 0 0 .073651 -41.023 13.197)" gradientUnits="userSpaceOnUse" xlink:href="#linearGradientOuterRing"/></defs><g id="g944" transform="matrix(.0656 .034559 -.031995 .070856 17.699 18.18)"><g><path id="path7845" d="m128.29 5.5332c-16.741-3.4631-32.841 2.0451-44.183 15.185-1.3904 1.5604-4.5448 5.9683-7.0343 9.7971-4.9978 7.7033-13.554 20.662-25.216 38.423-4.2687 6.4565-12.984 19.67-19.341 29.373-6.3577 9.7035-12.844 19.461-14.298 21.689-15.59 23.397-19.269 51.781-9.5742 73.795 7.713 17.561 22.973 31.786 40.796 38.154 25.297 8.9828 48.937 4.5154 69.175-13.164 7.0469-6.1068 13.22-14.338 17.896-23.83 4.8723-9.8381 4.7288-9.3635 13.178-57.989 4.7565-27.136 9.0716-52.053 11.844-67.727 1.0712-6.1787 2.0326-12.99 2.1717-15.122 0.96165-16.692-5.2875-31.243-17.28-40.27-4.2797-3.2681-13.039-7.27-18.134-8.3125zm8.355 16.011c9.6215 6.2818 15.227 18.538 13.719 29.876-0.56923 4.197-2.9634 10.362-5.3584 13.963-5.7307 8.5747-17.495 14.009-28.441 13.107-3.965-0.30718-11.707-3.3003-15.004-5.734-2.8355-2.1358-6.8246-6.6187-8.7497-9.9262-1.925-3.3075-3.5523-9.0018-3.8751-13.355-0.36472-5.2781 0.4767-9.3624 3.1393-15.149 1.9375-4.1643 2.7572-5.3735 5.2207-7.9848 10.398-10.861 26.96-12.866 39.348-4.797z" fill="url(#linearGradient890)"/><path id="path5348" d="m126.99 6.0763c-16.741-3.4631-32.841 2.0451-44.183 15.185-1.3904 1.5604-4.5448 5.9683-7.0343 9.7971-4.9978 7.7033-13.554 20.662-25.216 38.423-4.2687 6.4565-12.984 19.67-19.341 29.373-6.3577 9.7035-12.844 19.461-14.298 21.689-15.59 23.397-19.269 51.781-9.5742 73.795 7.713 17.561 22.973 31.786 40.796 38.154 25.297 8.9829 48.937 4.5154 69.175-13.164 7.0469-6.1068 13.22-14.338 17.896-23.83 4.8723-9.8381 4.7288-9.3635 13.178-57.989 4.7565-27.136 9.0716-52.053 11.844-67.727 1.0712-6.1787 2.0326-12.99 2.1717-15.122 0.96166-16.692-5.2875-31.243-17.28-40.27-4.2797-3.2681-13.039-7.27-18.134-8.3125zm8.355 16.011c9.6215 6.2818 15.227 18.538 13.719 29.876-0.56924 4.197-2.9634 10.362-5.3584 13.963-5.7307 8.5747-17.495 14.009-28.441 13.107-3.965-0.30718-11.707-3.3003-15.004-5.734-2.8355-2.1358-6.8246-6.6187-8.7497-9.9262-1.925-3.3075-3.5523-9.0018-3.8751-13.355-0.36472-5.2781 0.4767-9.3624 3.1393-15.149 1.9375-4.1643 2.7572-5.3735 5.2207-7.9848 10.398-10.861 26.96-12.866 39.348-4.797z" fill="url(#linearGradient13502)"/><ellipse id="path7861" transform="rotate(22.5)" cx="128.81" cy="121.48" rx="45.278" ry="45.5" fill="#b3b3b3"/><ellipse id="circle7873" transform="rotate(22.5)" cx="129.31" cy="121.28" rx="40.372" ry="40.57" fill="url(#linearGradient892)" stroke="url(#linearGradient894)" stroke-linecap="square" stroke-width="1.2"/></g><ellipse id="circle7910" transform="rotate(22.5)" cx="128.04" cy="-1.9026" rx="31.157" ry="31.31" fill="none" stroke="url(#linearGradient896)" stroke-linecap="square" stroke-width="7.3618"/><ellipse id="path7849" transform="rotate(22.5)" cx="128.1" cy="-1.7753" rx="33.775" ry="33.941" fill="none" stroke="url(#linearGradient898)" stroke-linecap="square" stroke-width="2.1131"/></g><g><path id="path1041" d="m27.089 26.227c0.18846-1.3323-0.27451-2.577-1.2756-3.4157-0.11904-0.10302-0.45237-0.33318-0.74095-0.51336-0.58056-0.36168-1.5578-0.98183-2.8968-1.8266-0.4869-0.30943-1.4833-0.94101-2.2148-1.4015-0.73155-0.46049-1.4675-0.93087-1.6354-1.0362-1.7649-1.1308-3.8477-1.3034-5.4152-0.44927-1.2505 0.67967-2.2291 1.9397-2.6251 3.3692-0.5581 2.0286-0.14218 3.8713 1.2238 5.3916 0.47203 0.52958 1.0956 0.98161 1.8053 1.3106 0.73569 0.34299 0.70054 0.33365 4.277 0.79821 1.9961 0.2625 3.8286 0.49942 4.9817 0.65302 0.45444 0.05884 0.9546 0.10643 1.1105 0.10858 1.2203 0.0068 2.257-0.54518 2.8691-1.5265 0.22186-0.35041 0.48009-1.0565 0.5366-1.4619zm-1.1351 0.72382c-0.42111 0.78339-1.293 1.2753-2.1252 1.2034-0.30808-0.0275-0.76656-0.19055-1.0382-0.36426-0.64688-0.41578-1.0879-1.3195-1.064-2.185 0.0073-0.31342 0.19583-0.93526 0.36062-1.2048 0.14484-0.23204 0.45635-0.56459 0.69007-0.72979 0.23372-0.1652 0.64254-0.3168 0.95858-0.36018 0.38332-0.0505 0.68422-1e-3 1.1162 0.18465 0.31092 0.13535 0.40219 0.1949 0.60193 0.37806 0.83132 0.77377 1.0407 2.0694 0.49995 3.078z" fill="url(#linearGradient1055)"/><path id="path1043" d="m27.044 26.127c0.18846-1.3323-0.27451-2.577-1.2756-3.4157-0.11904-0.10302-0.45237-0.33318-0.74096-0.51336-0.58056-0.36168-1.5578-0.98182-2.8968-1.8266-0.4869-0.30942-1.4833-0.94101-2.2148-1.4015-0.73155-0.46049-1.4675-0.93087-1.6354-1.0362-1.7649-1.1308-3.8477-1.3034-5.4152-0.44927-1.2505 0.67967-2.2291 1.9397-2.6251 3.3692-0.55811 2.0286-0.14218 3.8713 1.2238 5.3916 0.47203 0.52959 1.0956 0.98161 1.8053 1.3106 0.73568 0.34299 0.70054 0.33365 4.277 0.79821 1.9961 0.2625 3.8286 0.49942 4.9817 0.65301 0.45444 0.05884 0.9546 0.10643 1.1105 0.10858 1.2203 0.0068 2.257-0.54517 2.8691-1.5265 0.22186-0.35042 0.48009-1.0565 0.5366-1.4619zm-1.1351 0.72382c-0.42111 0.78339-1.293 1.2753-2.1252 1.2034-0.30808-0.0275-0.76656-0.19054-1.0382-0.36426-0.64687-0.41578-1.0879-1.3195-1.064-2.185 0.0073-0.31342 0.19583-0.93526 0.36062-1.2048 0.14484-0.23204 0.45635-0.56459 0.69007-0.72979 0.23372-0.1652 0.64254-0.3168 0.95858-0.36018 0.38331-0.05049 0.68422-1e-3 1.1162 0.18465 0.31093 0.13535 0.4022 0.1949 0.60193 0.37806 0.83132 0.77378 1.0408 2.0694 0.49995 3.078z" fill="url(#linearGradient13502)"/><ellipse id="ellipse1045" transform="matrix(-.31154 .95023 -.93401 -.35725 0 0)" cx="15.475" cy="-21.763" rx="3.5409" ry="3.3516" fill="#acdaec"/><ellipse id="ellipse1047" transform="matrix(-.31154 .95023 -.93401 -.35725 0 0)" cx="15.51" cy="-21.794" rx="3.1573" ry="2.9885" fill="url(#linearGradient1057)" stroke="url(#linearGradient1059)" stroke-linecap="square" stroke-width=".091079"/></g><g id="g1091" transform="matrix(.072987 0 0 .078835 12.651 19.204)"><ellipse id="ellipse1049" transform="rotate(109.5)" cx="25.345" cy="-174.13" rx="31.157" ry="31.31" fill="none" stroke="url(#linearGradient1061)" stroke-linecap="square" stroke-width="7.3618"/><ellipse id="ellipse1051" transform="rotate(109.5)" cx="25.401" cy="-174" rx="33.775" ry="33.941" fill="none" stroke="url(#linearGradient1063)" stroke-linecap="square" stroke-width="2.1131"/><g><path id="path946" d="m162.47 123.88c16.87-2.7665 29.927-13.678 35.806-30.01 0.73883-1.955 2.1041-7.2006 3.0561-11.667 1.9052-8.9827 5.2493-24.147 9.7714-44.907 1.6714-7.5574 5.0724-23.016 7.5304-34.354 2.458-11.337 5.0168-22.771 5.5761-25.372 6.1703-27.43-0.56711-55.247-17.507-72.324-13.494-13.631-32.838-21.442-51.76-21-26.836 0.67933-47.305 13.322-59.862 37.08-4.3904 8.2266-7.2036 18.123-8.1672 28.661-1.023 10.931-1.0592 10.436 8.4786 58.86 5.2842 27.039 10.185 51.846 13.214 67.473 1.2142 6.1522 2.7577 12.856 3.3919 14.896 5.084 15.928 16.133 27.273 30.563 31.403 5.1667 1.5173 14.778 2.1145 19.908 1.2617zm-13.538-11.954c-11.234-2.4166-20.859-11.849-23.515-22.975-0.97264-4.1222-0.9468-10.736-1e-3 -14.956 2.2772-10.059 11.312-19.348 21.855-22.429 3.8117-1.1342 12.112-1.1142 16.062-0.02363 3.4126 0.97781 8.7433 3.7334 11.726 6.1313 2.9825 2.3979 6.5423 7.1309 8.4036 11.079 2.232 4.7968 2.9101 8.9114 2.4981 15.268-0.31645 4.582-0.64841 6.0047-2.0124 9.3254-5.8151 13.865-20.558 21.673-35.016 18.58z" fill="url(#linearGradient960)"/><path id="path948" d="m163.49 122.91c16.87-2.7665 29.927-13.678 35.806-30.01 0.73883-1.955 2.1041-7.2006 3.0561-11.667 1.9052-8.9827 5.2493-24.147 9.7714-44.907 1.6714-7.5574 5.0723-23.016 7.5304-34.354 2.458-11.337 5.0168-22.771 5.5761-25.372 6.1703-27.43-0.56711-55.247-17.507-72.324-13.494-13.631-32.838-21.442-51.76-21-26.836 0.67931-47.305 13.322-59.862 37.08-4.3904 8.2266-7.2036 18.123-8.1672 28.661-1.023 10.931-1.0592 10.436 8.4786 58.86 5.2842 27.039 10.185 51.846 13.214 67.473 1.2142 6.1522 2.7577 12.856 3.392 14.896 5.084 15.928 16.133 27.273 30.563 31.403 5.1667 1.5173 14.778 2.1145 19.908 1.2617zm-13.538-11.954c-11.234-2.4166-20.859-11.849-23.515-22.975-0.97263-4.1222-0.94681-10.736-1e-3 -14.956 2.2772-10.059 11.312-19.348 21.855-22.429 3.8117-1.1342 12.112-1.1142 16.062-0.02363 3.4126 0.97781 8.7433 3.7334 11.726 6.1313 2.9825 2.3979 6.5423 7.1309 8.4036 11.079 2.232 4.7969 2.9101 8.9114 2.4981 15.268-0.31645 4.582-0.64841 6.0047-2.0124 9.3254-5.8151 13.865-20.558 21.673-35.016 18.58z" fill="url(#linearGradient13502)"/><ellipse id="ellipse950" transform="rotate(181.5)" cx="-157.49" cy="45.876" rx="45.278" ry="45.5" fill="#e9f6d5"/><ellipse id="ellipse952" transform="rotate(181.5)" cx="-157.72" cy="45.697" rx="40.372" ry="40.57" fill="url(#linearGradient962)" stroke="url(#linearGradient964)" stroke-linecap="square" stroke-width="1.2"/></g><ellipse id="ellipse954" transform="rotate(181.5)" cx="-158.26" cy="-77.504" rx="31.157" ry="31.31" fill="none" stroke="url(#linearGradient966)" stroke-linecap="square" stroke-width="7.3618"/><ellipse id="ellipse956" transform="rotate(181.5)" cx="-158.2" cy="-77.377" rx="33.775" ry="33.941" fill="none" stroke="url(#linearGradient968)" stroke-linecap="square" stroke-width="2.1131"/></g><ellipse id="ellipse1111" transform="matrix(-.9996 -.028273 .024236 -.99971 0 0)" cx="-24.532" cy="-24.95" rx="2.2742" ry="2.4682" fill="none" stroke="url(#linearGradient1143)" stroke-linecap="square" stroke-width=".55843"/><ellipse id="ellipse1113" transform="matrix(-.9996 -.028273 .024236 -.99971 0 0)" cx="-24.528" cy="-24.939" rx="2.4653" ry="2.6756" fill="none" stroke="url(#linearGradient1145)" stroke-linecap="square" stroke-width=".16029"/><g><path id="path1115" d="m21.164 27.165c0.57254 1.1975 1.6245 1.9106 2.8907 1.9535 0.15237 0.0078 0.54728-0.01766 0.87881-0.0551 0.6665-0.07598 1.7945-0.19467 3.3376-0.36137 0.5623-0.05879 1.7121-0.1804 2.5545-0.2723 0.84242-0.0919 1.6938-0.17859 1.887-0.20003 2.0432-0.2056 3.8222-1.3884 4.6255-3.0746 0.64183-1.3438 0.74778-2.9844 0.29031-4.3924-0.65242-1.9955-1.9917-3.2222-3.9241-3.5849-0.67007-0.12876-1.4205-0.09859-2.1737 0.08586-0.78183 0.18959-0.74832 0.17483-3.8945 2.0696-1.7577 1.0549-3.3692 2.0267-4.3856 2.6345-0.39967 0.24091-0.8302 0.51996-0.95753 0.61721-0.99096 0.76921-1.5293 1.874-1.4905 3.0566 0.01121 0.42434 0.18653 1.1595 0.36144 1.5234zm0.52443-1.3062c-0.08562-0.90113 0.35205-1.8526 1.0645-2.3228 0.26421-0.17335 0.72385-0.33252 1.0381-0.36441 0.7496-0.07431 1.5982 0.37681 2.0498 1.0922 0.1647 0.25816 0.35052 0.88097 0.36391 1.2037 0.0091 0.27968-0.06196 0.74649-0.16114 1.0285-0.09919 0.28203-0.34743 0.66424-0.5795 0.89997-0.28263 0.2842-0.55294 0.43528-1.0035 0.55924-0.3252 0.0879-0.43144 0.09767-0.69271 0.0763-1.0936-0.09821-1.9681-1.0134-2.0795-2.1727z" fill="url(#linearGradient1147)"/><path id="path1117" d="m21.255 27.218c0.57254 1.1975 1.6245 1.9106 2.8907 1.9535 0.15237 0.0078 0.54728-0.01766 0.87881-0.0551 0.6665-0.07598 1.7945-0.19468 3.3376-0.36137 0.5623-0.05879 1.7121-0.1804 2.5545-0.2723 0.84242-0.0919 1.6938-0.17859 1.887-0.20003 2.0432-0.2056 3.8222-1.3884 4.6255-3.0746 0.64183-1.3438 0.74778-2.9844 0.29031-4.3924-0.65242-1.9955-1.9917-3.2222-3.9241-3.5849-0.67007-0.12876-1.4205-0.09859-2.1737 0.08587-0.78183 0.18959-0.74832 0.17483-3.8945 2.0696-1.7577 1.0549-3.3692 2.0267-4.3856 2.6345-0.39967 0.24091-0.8302 0.51996-0.95752 0.61721-0.99096 0.76921-1.5293 1.874-1.4905 3.0565 0.01121 0.42434 0.18653 1.1595 0.36144 1.5234zm0.52443-1.3062c-0.08562-0.90113 0.35205-1.8526 1.0645-2.3228 0.2642-0.17335 0.72385-0.33252 1.0381-0.36441 0.7496-0.07431 1.5982 0.37681 2.0498 1.0922 0.1647 0.25816 0.35052 0.88097 0.3639 1.2037 0.0091 0.27968-0.06196 0.74649-0.16114 1.0285-0.09919 0.28203-0.34743 0.66424-0.5795 0.89997-0.28263 0.2842-0.55294 0.43528-1.0035 0.55924-0.3252 0.0879-0.43144 0.09767-0.69271 0.07629-1.0936-0.09821-1.9681-1.0134-2.0795-2.1727z" fill="url(#linearGradient13502)"/><ellipse id="ellipse1119" transform="matrix(-.26448 -.96439 .95244 -.30473 0 0)" cx="-31.711" cy="25.395" rx="3.5488" ry="3.3432" fill="#f7a1c0"/><ellipse id="ellipse1121" transform="matrix(-.26448 -.96439 .95244 -.30473 0 0)" cx="-31.712" cy="25.331" rx="3.1643" ry="2.981" fill="url(#linearGradient1149)" stroke="url(#linearGradient1151)" stroke-linecap="square" stroke-width=".091066"/></g><ellipse id="ellipse1123" transform="matrix(-.26448 -.96439 .95244 -.30473 0 0)" cx="-31.771" cy="16.33" rx="2.4421" ry="2.3005" fill="none" stroke="url(#linearGradient1153)" stroke-linecap="square" stroke-width=".55868"/><ellipse id="ellipse1125" transform="matrix(-.26448 -.96439 .95244 -.30473 0 0)" cx="-31.767" cy="16.339" rx="2.6473" ry="2.4938" fill="none" stroke="url(#linearGradient1155)" stroke-linecap="square" stroke-width=".16036"/><g id="g878" transform="matrix(.048363 -.059044 .054664 .052238 15.898 30.368)"><g><path id="path866" d="m110.64 0.56427c-16.792 3.2072-29.558 14.457-35.008 30.937-0.6874 1.9737-1.9149 7.2532-2.7496 11.743-1.6694 9.0295-4.6154 24.276-8.5925 45.147-1.473 7.5986-4.4681 23.141-6.6285 34.539s-4.419 22.894-4.91 25.51c-5.4501 27.582 2.0131 55.213 19.395 71.841 13.846 13.273 33.388 20.575 52.292 19.638 26.809-1.3816 46.94-14.556 58.871-38.634 4.1735-8.3387 6.7267-18.306 7.4141-28.865 0.7365-10.954 0.7856-10.46-10.016-58.618-5.9902-26.891-11.539-51.562-14.976-67.104-1.3748-6.1183-3.0933-12.779-3.7807-14.802-5.4992-15.789-16.841-26.842-31.375-30.592-5.2046-1.3816-14.828-1.727-19.935-0.74012zm13.846 11.595c11.293 2.1217 21.162 11.299 24.108 22.352 1.0802 4.0953 1.2275 10.707 0.3928 14.95-2.0131 10.115-10.802 19.638-21.26 22.993-3.7807 1.2335-12.079 1.4309-16.056 0.44407-3.437-0.88814-8.838-3.5032-11.882-5.8223-3.0442-2.319-6.7267-6.9572-8.6907-10.855-2.3568-4.7368-3.1424-8.8321-2.8969-15.197 0.1964-4.5888 0.491-6.0197 1.7676-9.3749 5.4501-14.013 19.984-22.204 34.517-19.49z" fill="url(#linearGradient880)"/><path id="path868" d="m109.64 1.5643c-16.792 3.2072-29.558 14.457-35.008 30.937-0.6874 1.9737-1.9149 7.2532-2.7496 11.743-1.6694 9.0295-4.6154 24.276-8.5925 45.147-1.473 7.5986-4.4681 23.141-6.6285 34.539s-4.419 22.894-4.91 25.51c-5.4501 27.582 2.0131 55.213 19.395 71.841 13.846 13.273 33.388 20.575 52.292 19.638 26.809-1.3816 46.94-14.556 58.871-38.634 4.1735-8.3387 6.7267-18.306 7.4141-28.865 0.7365-10.954 0.7856-10.46-10.016-58.618-5.9902-26.891-11.539-51.562-14.976-67.104-1.3748-6.1183-3.0933-12.779-3.7807-14.802-5.4992-15.789-16.841-26.842-31.375-30.592-5.2046-1.3816-14.828-1.727-19.935-0.74012zm13.846 11.595c11.293 2.1217 21.162 11.299 24.108 22.352 1.0802 4.0953 1.2275 10.707 0.3928 14.95-2.0131 10.115-10.802 19.638-21.26 22.993-3.7807 1.2335-12.079 1.4309-16.056 0.44407-3.437-0.88814-8.838-3.5032-11.882-5.8223-3.0442-2.319-6.7267-6.9572-8.6907-10.855-2.3568-4.7368-3.1424-8.8321-2.8969-15.197 0.1964-4.5888 0.491-6.0197 1.7676-9.3749 5.4501-14.013 19.984-22.204 34.517-19.49z" fill="url(#linearGradient13502)"/><ellipse id="ellipse870" cx="118.81" cy="166.02" rx="45.278" ry="45.5" fill="#323232"/><ellipse id="ellipse872" cx="119.3" cy="165.83" rx="40.372" ry="40.57" fill="url(#linearGradient882)" stroke="url(#linearGradient884)" stroke-linecap="square" stroke-width="1.2"/></g><ellipse id="ellipse874" cx="118.04" cy="42.645" rx="31.157" ry="31.31" fill="none" stroke="url(#linearGradient886)" stroke-linecap="square" stroke-width="7.3618"/><ellipse id="ellipse876" cx="118.09" cy="42.772" rx="33.775" ry="33.941" fill="none" stroke="url(#linearGradient888)" stroke-linecap="square" stroke-width="2.1131"/></g></svg>
