<?xml version="1.0" encoding="UTF-8" standalone="no"?>
<svg
   xmlns:dc="http://purl.org/dc/elements/1.1/"
   xmlns:cc="http://creativecommons.org/ns#"
   xmlns:rdf="http://www.w3.org/1999/02/22-rdf-syntax-ns#"
   xmlns:svg="http://www.w3.org/2000/svg"
   xmlns="http://www.w3.org/2000/svg"
   xmlns:xlink="http://www.w3.org/1999/xlink"
   xmlns:sodipodi="http://sodipodi.sourceforge.net/DTD/sodipodi-0.dtd"
   xmlns:inkscape="http://www.inkscape.org/namespaces/inkscape"
   height="241"
   width="241"
   xml:space="preserve"
   viewBox="0 0 241 241"
   version="1.1"
   id="Layer_1"
   enable-background="new 0 0 512 512"
   sodipodi:docname="itag_black.svg"
   inkscape:version="0.92.2 5c3e80d, 2017-08-06"><sodipodi:namedview
     pagecolor="#ffffff"
     bordercolor="#666666"
     borderopacity="1"
     objecttolerance="10"
     gridtolerance="10"
     guidetolerance="10"
     inkscape:pageopacity="0"
     inkscape:pageshadow="2"
     inkscape:window-width="1161"
     inkscape:window-height="765"
     id="namedview12953"
     showgrid="false"
     inkscape:zoom="1.9585062"
     inkscape:cx="93.698797"
     inkscape:cy="121.24473"
     inkscape:window-x="125"
     inkscape:window-y="0"
     inkscape:window-maximized="0"
     inkscape:current-layer="Layer_1" /><metadata
     id="metadata29"><rdf:RDF><cc:Work
         rdf:about=""><dc:format>image/svg+xml</dc:format><dc:type
           rdf:resource="http://purl.org/dc/dcmitype/StillImage" /><dc:title /></cc:Work></rdf:RDF></metadata><defs
     id="defs27"><linearGradient
       id="outer_ring"><stop
         style="stop-color:#000000;stop-opacity:1"
         offset="0"
         id="stop13504" /><stop
         style="stop-color:#515151;stop-opacity:1"
         offset="1"
         id="stop13506" /></linearGradient><linearGradient
       id="ring"><stop
         style="stop-color:#646464;stop-opacity:1"
         offset="0"
         id="stop7914" /><stop
         style="stop-color:#e1e1e1;stop-opacity:1"
         offset="1"
         id="stop7916" /></linearGradient><linearGradient
       id="button">
<stop
         id="stop7853"
         offset="0"
         style="stop-color:#000000;stop-opacity:1" /><stop
         id="stop7855"
         offset="1"
         style="stop-color:#515151;stop-opacity:1" /></linearGradient><linearGradient
       id="body"><stop
         id="stop7837"
         offset="0"
         style="stop-color:#505050;stop-opacity:1" /><stop
         id="stop7839"
         offset="1"
         style="stop-color:#000000;stop-opacity:1" /></linearGradient><linearGradient
       gradientTransform="matrix(0.99511082,0,0,1,-134.74592,-135.00001)"
       gradientUnits="userSpaceOnUse"
       y2="375.32202"
       x2="324.71927"
       y1="135.59322"
       x1="186.196"
       id="linearGradient7843"
       xlink:href="#body" /><linearGradient
       gradientTransform="matrix(0.95450193,0,0,0.95919159,-125.30457,-127.96412)"
       gradientUnits="userSpaceOnUse"
       y2="215.96609"
       x2="292.8425"
       y1="137.86441"
       x1="215.5304"
       id="linearGradient7859"
       xlink:href="#button" /><linearGradient
       gradientTransform="matrix(0.99511082,0,0,1,-135.09061,-135.00001)"
       gradientUnits="userSpaceOnUse"
       y2="342.2468"
       x2="297.21204"
       y1="257.87338"
       x1="214.07121"
       id="linearGradient7881"
       xlink:href="#button" /><linearGradient
       y2="215.96609"
       x2="292.8425"
       y1="137.86441"
       x1="215.5304"
       gradientTransform="matrix(0.88051721,0,0,0.88484337,-106.49442,-114.85741)"
       gradientUnits="userSpaceOnUse"
       id="linearGradient7912"
       xlink:href="#ring" /><linearGradient
       inkscape:collect="always"
       xlink:href="#button"
       id="linearGradient13500"
       gradientTransform="scale(0.99761122,1.0023945)"
       x1="78.118151"
       y1="123.96231"
       x2="175.38632"
       y2="181.01215"
       gradientUnits="userSpaceOnUse" /><linearGradient
       inkscape:collect="always"
       xlink:href="#body"
       id="linearGradient13502" /><linearGradient
       inkscape:collect="always"
       xlink:href="#outer_ring"
       id="linearGradient13511" /></defs><path
     id="path7845"
     d="M 110.63865,0.56427155 C 93.846384,3.7714616 81.080344,15.021312 75.630214,31.501352 c -0.6874,1.97366 -1.91491,7.25319 -2.74961,11.74326 -1.6694,9.02948 -4.61542,24.27599 -8.59254,45.14742 -1.473,7.59858 -4.46811,23.141128 -6.62852,34.538998 -2.16041,11.39787 -4.41901,22.89443 -4.91002,25.50952 -5.45012,27.58187 2.01311,55.21307 19.39458,71.84113 13.84625,13.27285 33.388126,20.57538 52.291696,19.63789 26.80871,-1.38156 46.93979,-14.55572 58.87114,-38.63434 4.17351,-8.3387 6.72673,-18.30567 7.41413,-28.86474 0.7365,-10.9538 0.7856,-10.46038 -10.01645,-58.61762 -5.99022,-26.891078 -11.53854,-51.561808 -14.97555,-67.104358 -1.37481,-6.11834 -3.09332,-12.77943 -3.78071,-14.80243 C 156.44912,16.106822 145.10699,5.0543416 130.57333,1.3043916 125.36871,-0.07716845 115.74507,-0.42255845 110.63865,0.56427155 Z M 124.4849,12.159512 c 11.29305,2.12168 21.16219,11.29919 24.1082,22.35167 1.08021,4.09534 1.2275,10.70709 0.3928,14.95045 -2.01311,10.115 -10.80204,19.6379 -21.26038,22.99312 -3.78072,1.23354 -12.07865,1.4309 -16.05577,0.44407 -3.43701,-0.88814 -8.83803,-3.50324 -11.882246,-5.82229 -3.04421,-2.31904 -6.72672,-6.95715 -8.69073,-10.85512 -2.35681,-4.73678 -3.14241,-8.83212 -2.89691,-15.19716 0.1964,-4.58876 0.491,-6.01966 1.76761,-9.37488 5.45012,-14.01296 19.983776,-22.2036404 34.517426,-19.48986 z"
     style="fill:#000000;fill-opacity:1;stroke:none;stroke-width:0.04922066" /><path
     style="fill:url(#body);fill-opacity:1.0;stroke:none;stroke-width:0.04922066"
     d="M 109.64354,1.5642816 C 92.851274,4.7714716 80.085234,16.021322 74.635104,32.501362 c -0.6874,1.97366 -1.91491,7.25319 -2.74961,11.74326 -1.66941,9.02948 -4.61542,24.27599 -8.59254,45.14742 -1.473,7.59858 -4.46811,23.141128 -6.62852,34.538998 -2.16041,11.39787 -4.41901,22.89443 -4.91002,25.50952 -5.45012,27.58187 2.01311,55.21307 19.39458,71.84113 13.84625,13.27285 33.388126,20.57538 52.291696,19.63789 26.8087,-1.38156 46.93979,-14.55572 58.87114,-38.63434 4.17351,-8.3387 6.72673,-18.30567 7.41413,-28.86474 0.7365,-10.9538 0.7856,-10.46038 -10.01645,-58.61762 -5.99022,-26.891078 -11.53854,-51.561808 -14.97555,-67.104358 -1.37481,-6.11834 -3.09332,-12.77943 -3.78072,-14.80243 C 155.45401,17.106832 144.11188,6.0543516 129.57822,2.3044016 124.3736,0.92284155 114.74996,0.57745155 109.64354,1.5642816 Z m 13.84625,11.5952404 c 11.29305,2.12168 21.16219,11.29919 24.1082,22.35167 1.0802,4.09534 1.2275,10.70709 0.3928,14.95045 -2.01311,10.115 -10.80205,19.6379 -21.26038,22.99312 -3.78072,1.23354 -12.07865,1.4309 -16.05577,0.44407 -3.43701,-0.88814 -8.83803,-3.50324 -11.882246,-5.82229 -3.04421,-2.31904 -6.72672,-6.95715 -8.69073,-10.85512 -2.35681,-4.73678 -3.14241,-8.83212 -2.89691,-15.19716 0.1964,-4.58876 0.491,-6.01966 1.76761,-9.37488 5.45012,-14.01296 19.983776,-22.20364 34.517426,-19.48986 z"
     id="path5348" /><ellipse
     ry="45.5"
     rx="45.277542"
     cy="166.02498"
     cx="118.80594"
     id="path7861"
     style="opacity:1;fill:#323232;fill-opacity:1;stroke:none;stroke-width:3.19874835;stroke-linecap:square;stroke-miterlimit:4;stroke-dasharray:none;stroke-opacity:1" /><ellipse
     ry="40.570408"
     rx="40.372051"
     style="opacity:1;fill:#040404;fill-opacity:1;stroke:#000000;stroke-width:2.8521874;stroke-linecap:square;stroke-miterlimit:4;stroke-dasharray:none;stroke-opacity:1"
     id="circle7863"
     cx="119.30115"
     cy="165.8271" /><ellipse
     ry="40.570408"
     rx="40.372051"
     cy="165.8271"
     cx="119.30115"
     id="circle7873"
     style="opacity:1;fill:url(#button);fill-opacity:1;stroke:#000000;stroke-width:1.99510479;stroke-linecap:square;stroke-miterlimit:4;stroke-dasharray:none;stroke-opacity:1" /><ellipse
     ry="31.310045"
     rx="31.156965"
     style="opacity:1;fill:none;fill-opacity:1;stroke:url(#ring);stroke-width:7.36184645;stroke-linecap:square;stroke-miterlimit:4;stroke-dasharray:none;stroke-opacity:1"
     id="circle7910"
     cx="118.03751"
     cy="42.644722" /><ellipse
     ry="33.940845"
     rx="33.774902"
     cy="42.771996"
     cx="118.09343"
     id="path7849"
     style="opacity:1;fill:none;fill-opacity:1;stroke:url(#outer_ring);stroke-width:2.11312413;stroke-linecap:square;stroke-miterlimit:4;stroke-dasharray:none;stroke-opacity:1" /></svg>
