<?xml version="1.0" ?><svg enable-background="new 0 0 512 512" id="Layer_1" version="1.1" viewBox="0 0 512 512" xml:space="preserve" xmlns="http://www.w3.org/2000/svg" xmlns:xlink="http://www.w3.org/1999/xlink"><g><g><linearGradient gradientUnits="userSpaceOnUse" id="SVGID_1_" x1="0.0000083" x2="512" y1="256" y2="256"><stop offset="0" style="stop-color:#F67950"/><stop offset="1" style="stop-color:#F15A29"/></linearGradient><circle cx="256" cy="256" fill="url(#SVGID_1_)" r="256"/><linearGradient gradientUnits="userSpaceOnUse" id="SVGID_2_" x1="42.6666756" x2="469.333313" y1="256.0005188" y2="256.0005188"><stop offset="0" style="stop-color:#F15A29"/><stop offset="1" style="stop-color:#F67950"/></linearGradient><path d="M256,469.3338623c-117.6309204,0-213.3333282-95.7023926-213.3333282-213.3333435    c0-117.6314545,95.7024078-213.333313,213.3333282-213.333313c117.636261,0,213.333313,95.7018661,213.333313,213.333313    C469.333313,373.6314697,373.636261,469.3338623,256,469.3338623z" fill="url(#SVGID_2_)"/></g><g><path d="M321.1642761,175.5477295h-58.0378723c-34.6480103,0-62.8362732,28.1882629-62.8362732,62.8362732    c0,34.6495972,28.1882629,62.8378601,62.8362732,62.8378601h43.9141541v-9.6000061h-43.9141541    c-29.3557434,0-53.2362671-23.8826599-53.2362671-53.237854c0-29.3557434,23.8805237-53.2362671,53.2362671-53.2362671h58.0378723    c29.3551941,0,53.2357178,23.8805237,53.2357178,53.2362671c0,23.5776062-15.1333313,44.0410767-37.657074,50.9221191    l2.8032227,9.1829529C366.1359863,290.3658752,384,266.2106628,384,238.3840027    C384,203.7359924,355.8122559,175.5477295,321.1642761,175.5477295z" opacity="0.3"/><path d="M264.8746643,226.7797394h-43.8773346v9.5999908h43.8773346    c29.3552246,0,53.2357178,23.8805237,53.2357178,53.2362671c0,29.3551941-23.8804932,53.2357483-53.2357178,53.2357483    h-58.0362701c-29.3551788,0-53.2383881-23.8805542-53.2383881-53.2357483    c0-23.5759888,15.1338654-44.0415955,37.659729-50.9226685l-2.8079987-9.1829224    c-26.5877228,8.1253204-44.4517212,32.2805176-44.4517212,60.1055908c0,34.6474609,28.188797,62.8357239,62.8383789,62.8357239    h58.0362701c34.6474609,0,62.8357239-28.1882629,62.8357239-62.8357239S299.5221252,226.7797394,264.8746643,226.7797394z" opacity="0.3"/></g><g><path d="M313.1642761,167.5477295h-58.0378876c-34.647995,0-62.8362579,28.1882629-62.8362579,62.8362732    c0,34.6495972,28.1882629,62.8378601,62.8362579,62.8378601h43.9141693v-9.6000061h-43.9141693    c-29.3557281,0-53.2362518-23.8826599-53.2362518-53.237854c0-29.3557434,23.8805237-53.2362671,53.2362518-53.2362671h58.0378876    c29.3551941,0,53.2357178,23.8805237,53.2357178,53.2362671c0,23.5775909-15.1333313,44.0410767-37.657074,50.9221191    l2.8032227,9.1829529C358.1359863,282.3658752,376,258.2106628,376,230.3840027    C376,195.7359924,347.8122559,167.5477295,313.1642761,167.5477295z" fill="#FFFFFF"/><path d="M256.8746643,218.7797394h-43.8773346v9.5999908h43.8773346    c29.3552246,0,53.2357178,23.8805389,53.2357178,53.2362671c0,29.3551941-23.8804932,53.2357483-53.2357178,53.2357483    h-58.0362701c-29.3551788,0-53.2383881-23.8805542-53.2383881-53.2357483    c0-23.5759888,15.1338654-44.0415955,37.659729-50.9226685l-2.8079987-9.1829224    c-26.5877228,8.1253204-44.4517212,32.2805328-44.4517212,60.1055908c0,34.6474609,28.188797,62.8357239,62.8383789,62.8357239    h58.0362701c34.6474609,0,62.8357239-28.1882629,62.8357239-62.8357239S291.5221252,218.7797394,256.8746643,218.7797394z" fill="#FFFFFF"/></g></g></svg>