<?xml version="1.0" encoding="UTF-8" standalone="no"?>
<svg
   xmlns:dc="http://purl.org/dc/elements/1.1/"
   xmlns:cc="http://creativecommons.org/ns#"
   xmlns:rdf="http://www.w3.org/1999/02/22-rdf-syntax-ns#"
   xmlns:svg="http://www.w3.org/2000/svg"
   xmlns="http://www.w3.org/2000/svg"
   xmlns:sodipodi="http://sodipodi.sourceforge.net/DTD/sodipodi-0.dtd"
   xmlns:inkscape="http://www.inkscape.org/namespaces/inkscape"
   viewBox="0 0 60 60"
   version="1.1"
   id="svg48"
   sodipodi:docname="location.svg"
   inkscape:version="0.92.2 5c3e80d, 2017-08-06">
  <metadata
     id="metadata52">
    <rdf:RDF>
      <cc:Work
         rdf:about="">
        <dc:format>image/svg+xml</dc:format>
        <dc:type
           rdf:resource="http://purl.org/dc/dcmitype/StillImage" />
        <dc:title></dc:title>
      </cc:Work>
    </rdf:RDF>
  </metadata>
  <sodipodi:namedview
     pagecolor="#ffffff"
     bordercolor="#666666"
     borderopacity="1"
     objecttolerance="10"
     gridtolerance="10"
     guidetolerance="10"
     inkscape:pageopacity="0"
     inkscape:pageshadow="2"
     inkscape:window-width="1126"
     inkscape:window-height="760"
     id="namedview50"
     showgrid="false"
     inkscape:zoom="3.9333333"
     inkscape:cx="27.097974"
     inkscape:cy="29.142067"
     inkscape:window-x="121"
     inkscape:window-y="0"
     inkscape:window-maximized="0"
     inkscape:current-layer="svg48" />
  <defs
     id="defs4">
    <style
       id="style2">.a{fill:#00a651;}.b{fill:#69b4ed;}.c{fill:#eff1f4;}.d{fill:#ffd301;}.e{fill:#e5e7ea;}.f{fill:#009f4e;}.g{fill:#070707;opacity:0.15;}.h{fill:#faad0d;}.i{fill:#fff;}</style>
  </defs>
  <path
     class="a"
     d="M15.97,56.52A29.9915,29.9915,0,0,1,3.14,43.36l9.62-2.65Z"
     id="path8" />
  <path
     class="a"
     d="M49.42,47.75l-9.65,2.64-.98-4.83L17.96,51.24l-2.3-11.32,13.62-3.75a59.63221,59.63221,0,0,0,4.76,6.16,53.18358,53.18358,0,0,0,6.67-9.3l5.43-1.49Z"
     id="path10" />
  <path
     class="b"
     d="M59.91,27.7c-.04-.46-.09-.92-.14-1.38-.01-.08-.02-.15-.03-.23q-.09-.67493-.21-1.32v-.02L42.37,29.47a13.28833,13.28833,0,0,0,1.17-5.14l-.03.05c.01-.18.03-.36.03-.55a9.5,9.5,0,0,0-19,0c0,.19.02.37006.03.55l-.03-.05s-.23,3.28,3.11,9.19L22.61,34.9,15.74,3.6a30.99273,30.99273,0,0,0-2.7,1.66A29.99656,29.99656,0,0,0,1.93,40.59c.02.04.03.08.05.12.15.4.31.8.48,1.18005a2.4777,2.4777,0,0,0,.17.37c.14.35.31.69.48,1.03.01.02.02.05.03.07l9.62-2.65,3.21,15.81c.32.17.64.33.97.49005.44.21.89.42,1.34.61.35.15.7.29,1.06.43l-.79-3.87,17.93-4.89,1.93,9.5a.08993.08993,0,0,0,.05-.01l.12-.03c.43-.13.86-.27,1.28-.42.42-.14.84-.3,1.26-.47l.15-.06-.9-4.46,9.65-2.64L50.3,52.08c.22-.2.45-.41.66-.62994.12-.11.23-.22.34-.34.31-.31.61-.62.9-.94q.315-.36.63-.72L49.04,30.74l10.87-2.99ZM49.42,47.75l-9.65,2.64-.98-4.83L17.96,51.24l-2.3-11.32,13.62-3.75a59.63221,59.63221,0,0,0,4.76,6.16,53.18358,53.18358,0,0,0,6.67-9.3l5.43-1.49Z"
     id="path12" />
  <path
     class="a"
     d="M60,30a29.8667,29.8667,0,0,1-7.17,19.45L49.04,30.74l10.87-2.99Q60,28.86,60,30Z"
     id="path14" />
  <path
     class="a"
     d="M50.3,52.08a29.85328,29.85328,0,0,1-9.03,5.72l-.9-4.46,9.65-2.64Z"
     id="path16" />
  <path
     class="a"
     d="M38.41,58.79A29.5841,29.5841,0,0,1,30,60a29.92867,29.92867,0,0,1-10.66-1.95l-.79-3.87,17.93-4.89Z"
     id="path18" />
  <path
     class="c"
     d="M42.37,29.47a13.28833,13.28833,0,0,0,1.17-5.14l-.03.05c.01-.18.03-.36.03-.55a9.5,9.5,0,0,0-19,0c0,.19.02.37006.03.55l-.03-.05s-.23,3.28,3.11,9.19L22.61,34.9,15.74,3.6A30.00344,30.00344,0,0,1,59.53,24.75Z"
     id="path20" />
  <path
     class="d"
     d="M22.95,36.44l-2.93.65-.31-1.39L13.04,5.26a30.99273,30.99273,0,0,1,2.7-1.66l6.87,31.3Z"
     id="path22" />
  <path
     class="e"
     d="M49.92029,7.57568a30.07,30.07,0,0,0-2.92688-2.29614L41.27356,6.85327l-5.04,1.38-2.9.8L17.86621,13.28723l.64227,2.92609,24.39508-6.71Z"
     id="path24" />
  <path
     class="e"
     d="M56.58759,16.10028,42.69318,19.92163a9.42883,9.42883,0,0,1,.79,2.88544L57.84814,18.8559A29.81743,29.81743,0,0,0,56.58759,16.10028Z"
     id="path26" />
  <path
     class="e"
     d="M34.395,8.90192l.31,1.39,2.93-.65-.34-1.54L35.63354.532A29.99884,29.99884,0,0,0,32.46741.10486Z"
     id="path28" />
  <path
     class="f"
     d="M19.34,58.05c-.36-.14-.71-.28-1.06-.43-.45-.19-.9-.4-1.34-.61-.33-.16-.65-.32-.97-.49005l-3.21-15.81L12.57,39.78l2.93994-.6.15.74,2.3,11.32.59,2.94Z"
     id="path30" />
  <path
     class="f"
     d="M41.27,57.8l-.15.06c-.42.17-.84.33-1.26.47-.42.15-.85.29-1.28.42l-.12.03c-.02.01-.03.02-.05.02v-.01l-1.93-9.5L18.55,54.18l-1.35.37-.79-2.89,1.55-.42,20.83-5.68.98,4.83.6,2.95Z"
     id="path32" />
  <path
     class="f"
     d="M52.83,49.45q-.31494.36-.63.72c-.29.32-.59.63-.9.94-.11.12-.22.23-.34.34-.21.22-.44.43-.66.62994L50.02,50.7l-.6-2.95L46.14,31.54l-.12-.6,2.94-.6.08.4Z"
     id="path34" />
  <polygon
     class="f"
     points="51.57 50.28 50.02 50.7 40.37 53.34 38.66 53.8 37.87 50.91 39.77 50.39 49.42 47.75 50.78 47.38 51.57 50.28"
     id="polygon36" />
  <path
     class="d"
     d="M59.91,27.7v.05L49.04,30.74l-2.9.8-5.43,1.49L29.28,36.17,15.66,39.92l-2.9.79L3.14,43.36c-.00995-.02-.02-.05-.03-.07-.17-.34-.34-.68-.48-1.03a2.4777,2.4777,0,0,1-.17-.37c-.17-.38-.33-.78-.48-1.18005-.02-.04-.03-.08-.05-.12L19.71,35.7l2.9-.8,5.04-1.38,14.72-4.05,17.16-4.72v.02q.12.64508.21,1.32c.01.08.02.15.03.23C59.82,26.78,59.87,27.24,59.91,27.7Z"
     id="path38" />
  <path
     class="g"
     d="m 40.40343,41.530216 a 39.04532,39.04532 0 0 1 -3.530349,2.071083 60.498542,60.498542 0 0 1 -10.67674,4.179046 65.981347,65.981347 0 0 1 1.352017,-7.6118 c 0.272615,-1.105415 0.553029,-2.118917 0.841987,-3.054132 2.06175,-6.655392 4.504591,-9.24946 4.504591,-9.24946 l -0.01637,0.05728 c 0.119942,-0.154294 0.233691,-0.313919 0.366909,-0.471222 3.680627,-4.346324 9.308803,-5.621793 12.58069,-2.851026 3.271888,2.770768 2.941041,8.532176 -0.739543,12.878486 -0.133203,0.157303 -0.271913,0.295794 -0.404328,0.439528 l 0.05381,-0.02559 a 18.620045,18.620045 0 0 1 -4.332668,3.637803 z"
     id="path40"
     inkscape:connector-curvature="0"
     style="opacity:0.15;fill:#070707;stroke-width:1.46056628" />
  <path
     class="d"
     d="m 38.125823,29.394575 a 44.633447,44.633447 0 0 1 -2.42454,5.199616 77.678146,77.678146 0 0 1 -9.741978,13.583267 87.096798,87.096798 0 0 1 -6.952295,-8.997089 c -0.905551,-1.372932 -1.694257,-2.65823 -2.380723,-3.8705 -4.878292,-8.631947 -4.542362,-13.422605 -4.542362,-13.422605 l 0.04382,0.07303 c -0.0146,-0.262902 -0.04382,-0.525804 -0.04382,-0.803311 a 13.875381,13.875381 0 0 1 27.750761,0 c 0,0.277507 -0.02921,0.540497 -0.04382,0.803311 l 0.04382,-0.07303 a 19.408487,19.408487 0 0 1 -1.708863,7.507311 z"
     id="path42"
     style="fill:#ff0000;stroke-width:1.46056628"
     inkscape:connector-curvature="0" />
  <circle
     class="h"
     cx="25.964081"
     cy="22.135561"
     r="6.6066818"
     id="circle44"
     style="fill:#faad0d;stroke-width:1.46056628" />
  <circle
     class="i"
     cx="25.964081"
     cy="22.135561"
     r="4.1362653"
     id="circle46"
     style="fill:#ffffff;stroke-width:1.46056628" />
</svg>
