<?xml version="1.0" ?><svg enable-background="new 0 0 512 512" id="Layer_1" version="1.1" viewBox="0 0 512 512" xml:space="preserve" xmlns="http://www.w3.org/2000/svg" xmlns:xlink="http://www.w3.org/1999/xlink"><g><g><linearGradient gradientUnits="userSpaceOnUse" id="SVGID_1_" x1="-0.0000027" x2="512" y1="256" y2="256"><stop offset="0" style="stop-color:#A364AB"/><stop offset="1" style="stop-color:#8C3D96"/></linearGradient><circle cx="256" cy="256" fill="url(#SVGID_1_)" r="256"/><linearGradient gradientUnits="userSpaceOnUse" id="SVGID_2_" x1="42.6666641" x2="469.3333435" y1="256.0005188" y2="256.0005188"><stop offset="0" style="stop-color:#8C3D96"/><stop offset="1" style="stop-color:#A364AB"/></linearGradient><path d="M256,469.3338623c-117.6315155,0-213.3333435-95.7018738-213.3333435-213.3333435    c0-117.6309204,95.7018204-213.333313,213.3333435-213.333313c117.6356812,0,213.3333435,95.7024002,213.3333435,213.333313    C469.3333435,373.6319885,373.6356812,469.3338623,256,469.3338623z" fill="url(#SVGID_2_)"/></g><g><path d="M320.867157,199.4608002C311.9108887,186,298.3108826,175.8906708,282.34021,171.4384003v-9.0965271    C282.34021,152.211731,274.1290283,144,264,144h-0.0005798c-10.1290588,0-18.3397369,8.211731-18.3397369,18.3418732v9.0965271    c-28.7690125,8.0202637-49.9039917,34.352005-49.9039917,65.6784058v36.025589    c0,28.5109253-18.7519989,59.0047913-40.093338,76.7365417h14.7861328L320.867157,199.4608002z" opacity="0.3"/><path d="M332.2442322,273.142395v-36.025589c0-6.3072052-0.9610901-12.3664093-2.5738831-18.1557465    l32.9120178-32.9109344l-7.0709534-7.0703888l-29.5722656,29.5722656c-0.002655-0.0058746-0.0042725-0.0112-0.0064087-0.0165405    L184.5898285,349.8789368h0.022934l-26.8746796,26.8741455l7.0704041,7.0703735l33.9445343-33.944519h31.1248016    C229.8778229,368.7232056,245.1546173,384,263.9994202,384c18.8453369,0,34.1221313-15.2767944,34.1221313-34.1210632h74.2160034    C350.995697,332.1471863,332.2442322,301.6533203,332.2442322,273.142395z" opacity="0.3"/></g><g><path d="M312.867157,191.4608002C303.9108887,178,290.3108826,167.8906708,274.34021,163.4384003v-9.0965271    C274.34021,144.211731,266.1290283,136,256,136h-0.0005798c-10.1290588,0-18.3397369,8.211731-18.3397369,18.3418732v9.0965271    c-28.7690125,8.0202637-49.9039917,34.352005-49.9039917,65.6784058v36.025589    c0,28.5109253-18.7519989,59.0047913-40.093338,76.7365417h14.7861328L312.867157,191.4608002z" fill="#FFFFFF"/><path d="M324.2442322,265.142395v-36.025589c0-6.3072052-0.9610901-12.3664093-2.5738831-18.1557465    l32.9120178-32.9109344l-7.0709534-7.0703888l-29.5722656,29.5722656c-0.002655-0.0058746-0.0042725-0.0112-0.0064087-0.0165405    L176.5898285,341.8789368h0.022934l-26.8746796,26.8741455l7.0704041,7.0703735l33.9445343-33.944519h31.1248016    C221.8778229,360.7232056,237.1546173,376,255.9994202,376c18.8453369,0,34.1221313-15.2767944,34.1221313-34.1210632h74.2160034    C342.995697,324.1471863,324.2442322,293.6533203,324.2442322,265.142395z" fill="#FFFFFF"/></g></g></svg>