<?xml version="1.0" ?><svg enable-background="new 0 0 512 512" id="Layer_1" version="1.1" viewBox="0 0 512 512" xml:space="preserve" xmlns="http://www.w3.org/2000/svg" xmlns:xlink="http://www.w3.org/1999/xlink"><g><g><linearGradient gradientUnits="userSpaceOnUse" id="SVGID_1_" x1="0.0000038" x2="512" y1="256" y2="256"><stop offset="0" style="stop-color:#33B49D"/><stop offset="1" style="stop-color:#00A185"/></linearGradient><circle cx="256" cy="256" fill="url(#SVGID_1_)" r="256"/><linearGradient gradientUnits="userSpaceOnUse" id="SVGID_2_" x1="42.6666679" x2="469.3333435" y1="256.0005188" y2="256.0005188"><stop offset="0" style="stop-color:#00A185"/><stop offset="1" style="stop-color:#33B49D"/></linearGradient><path d="M256,469.3338623c-117.6309357,0-213.3333282-95.7023926-213.3333282-213.3333435    c0-117.6314545,95.7023926-213.333313,213.3333282-213.333313c117.636261,0,213.3333435,95.7018661,213.3333435,213.333313    C469.3333435,373.6314697,373.636261,469.3338623,256,469.3338623z" fill="url(#SVGID_2_)"/></g><polygon id="XMLID_109_" opacity="0.3" points="384,242.5413361 285.459198,242.5413361 285.459198,144 242.5424042,144    242.5424042,242.5413361 144,242.5413361 144,285.4581299 242.5424042,285.4581299 242.5424042,384 285.459198,384    285.459198,285.4581299 384,285.4581299  "/><polygon fill="#FFFFFF" id="XMLID_189_" points="376,234.5413361 277.459198,234.5413361 277.459198,136 234.5424042,136    234.5424042,234.5413361 136,234.5413361 136,277.4581299 234.5424042,277.4581299 234.5424042,376 277.459198,376    277.459198,277.4581299 376,277.4581299  "/></g></svg>