<?xml version="1.0" ?><svg enable-background="new 0 0 512 512" id="Layer_1" version="1.1" viewBox="0 0 512 512" xml:space="preserve" xmlns="http://www.w3.org/2000/svg" xmlns:xlink="http://www.w3.org/1999/xlink"><g><g><linearGradient gradientUnits="userSpaceOnUse" id="SVGID_1_" x1="-0.0000027" x2="512" y1="256" y2="256"><stop offset="0" style="stop-color:#8DC63F"/><stop offset="1" style="stop-color:#76B83F"/></linearGradient><circle cx="256" cy="256" fill="url(#SVGID_1_)" r="256"/><linearGradient gradientUnits="userSpaceOnUse" id="SVGID_2_" x1="42.6666641" x2="469.3333435" y1="256.0005188" y2="256.0005188"><stop offset="0" style="stop-color:#76B83F"/><stop offset="1" style="stop-color:#8DC63F"/></linearGradient><path d="M256,469.3338623c-117.6315002,0-213.3333435-95.7018738-213.3333435-213.3333435    S138.3684998,42.6671982,256,42.6671982c117.6357117,0,213.3333435,95.7018661,213.3333435,213.333313    S373.6357117,469.3338623,256,469.3338623z" fill="url(#SVGID_2_)"/></g><g><path d="M372.8677063,208.8800049C380.2885132,201.459198,384,191.7333374,384,182.0069275    c0-9.7274628-3.710968-19.4538574-11.1317749-26.8741302c-7.4207764-7.4207916-17.1477356-11.1317291-26.874115-11.1317291    c-9.7264099,0-19.4528198,3.7109375-26.8735962,11.1317291l-14.0453491,14.0447998l53.7456055,53.7493286L372.8677063,208.8800049    z" opacity="0.3"/><polygon opacity="0.3" points="144.9269104,329.3232117 144,383.997345 198.6741028,383.0709229 214.6005096,367.1440125     160.8527679,313.3967896   "/><path d="M351.7503662,229.9973297l-53.7456055-53.7498627l-54.8607941,54.8607941l-75.2202606,75.2191925    l53.7477264,53.7477417l75.2197418-75.2197266L351.7503662,229.9973297z M230.9370422,304.1306763l-7.0703735-7.0704041    l6.9093018-6.9088135l7.0704041,7.0698853L230.9370422,304.1306763z M249.1599731,285.9077454l-7.0709381-7.0698853    l7.0709381-7.0704041l7.0698547,7.0704041L249.1599731,285.9077454z M267.5434265,267.5242615l-7.0704041-7.0704041    l7.0752258-7.0703888l7.0704041,7.0703888L267.5434265,267.5242615z M285.9317017,249.140274l-7.0698547-7.06987    l7.0698547-7.0709381l7.0704041,7.0709381L285.9317017,249.140274z" opacity="0.3"/><rect height="10" opacity="0.3" width="125.5663681" x="258.4320068" y="373.9989319"/></g><g><path d="M364.8677063,200.8800049C372.2885132,193.459198,376,183.7333374,376,174.0069275    c0-9.7274628-3.710968-19.4538574-11.1317749-26.8741302c-7.4207764-7.4207916-17.1477356-11.1317291-26.874115-11.1317291    c-9.7264099,0-19.4528198,3.7109375-26.8735962,11.1317291l-14.0453491,14.0447998l53.7456055,53.7493286L364.8677063,200.8800049    z" fill="#FFFFFF"/><polygon fill="#FFFFFF" points="136.9269104,321.3232117 136,375.997345 190.6741028,375.0709229 206.6005096,359.1440125     152.8527679,305.3967896   "/><path d="M343.7503662,221.9973297l-53.7456055-53.7498627l-54.8607941,54.8607941l-75.2202606,75.2191925    l53.7477264,53.7477417l75.2197418-75.2197266L343.7503662,221.9973297z M222.9370422,296.1306763l-7.0703735-7.0704041    l6.9093018-6.9088135l7.0704041,7.0698853L222.9370422,296.1306763z M241.1599731,277.9077454l-7.0709381-7.0698853    l7.0709381-7.0704041l7.06987,7.0704041L241.1599731,277.9077454z M259.5434265,259.5242615l-7.0703888-7.0703888    l7.0752106-7.0704041l7.0704041,7.0704041L259.5434265,259.5242615z M277.9317017,241.140274l-7.0698547-7.06987    l7.0698547-7.0709381l7.0704041,7.0709381L277.9317017,241.140274z" fill="#FFFFFF"/><rect fill="#FFFFFF" height="10" width="125.5663681" x="250.4320068" y="365.9989319"/></g></g></svg>