<?xml version="1.0" ?><svg enable-background="new 0 0 512 512" id="Layer_1" version="1.1" viewBox="0 0 512 512" xml:space="preserve" xmlns="http://www.w3.org/2000/svg" xmlns:xlink="http://www.w3.org/1999/xlink"><g><g><linearGradient gradientUnits="userSpaceOnUse" id="SVGID_1_" x1="0.0000038" x2="512" y1="256" y2="256"><stop offset="0" style="stop-color:#33B49D"/><stop offset="1" style="stop-color:#00A185"/></linearGradient><circle cx="256" cy="256" fill="url(#SVGID_1_)" r="256"/><linearGradient gradientUnits="userSpaceOnUse" id="SVGID_2_" x1="42.6666679" x2="469.3333435" y1="256.0005188" y2="256.0005188"><stop offset="0" style="stop-color:#00A185"/><stop offset="1" style="stop-color:#33B49D"/></linearGradient><path d="M256,469.3338623c-117.6309357,0-213.3333282-95.7023926-213.3333282-213.3333435    c0-117.6314545,95.7023926-213.333313,213.3333282-213.333313c117.636261,0,213.3333435,95.7018661,213.3333435,213.333313    C469.3333435,373.6314697,373.636261,469.3338623,256,469.3338623z" fill="url(#SVGID_2_)"/></g><g><path d="M172.7344055,144.0042725v9.7957306c111.0891724,0,201.4645386,90.3786621,201.4645386,201.4672089    h9.7957153C383.9946594,238.7786713,289.2229309,144.0042725,172.7344055,144.0042725z" opacity="0.3"/><path d="M172.7344055,188.4143982v9.7957306c86.6026611,0,157.0575867,70.457077,157.0575867,157.0570831h9.7957458    C339.587738,263.2623901,264.7365417,188.4143982,172.7344055,188.4143982z" opacity="0.3"/><path d="M172.7344055,232.8191986v9.7951965c62.1162567,0,112.650116,50.5370636,112.650116,112.6528168h9.7957458    C295.1802673,287.7514648,240.2506714,232.8191986,172.7344055,232.8191986z" opacity="0.3"/><path d="M172.7344055,277.2287903v9.7957458c37.6298676,0,68.2431946,30.6154785,68.2431946,68.2426758h9.7957306    C250.7733307,312.235199,215.764267,277.2287903,172.7344055,277.2287903z" opacity="0.3"/><path d="M172.7333374,326.5338745c-15.8384094,0-28.7274628,12.8901367-28.7274628,28.7333374    c0,15.8373108,12.8890533,28.7279968,28.7274628,28.7279968c15.8437347,0,28.7329102-12.890686,28.7329102-28.7279968    C201.4662476,339.4240112,188.5770721,326.5338745,172.7333374,326.5338745z" opacity="0.3"/></g><g><path d="M164.7344055,136.0042725v9.7957306c111.0891724,0,201.4645386,90.3786621,201.4645386,201.4672089    h9.7957153C375.9946594,230.7786713,281.2229309,136.0042725,164.7344055,136.0042725z" fill="#FFFFFF"/><path d="M164.7344055,180.4143982v9.7957306c86.6026611,0,157.0575867,70.457077,157.0575867,157.0570831    h9.7957458C331.587738,255.2624054,256.7365417,180.4143982,164.7344055,180.4143982z" fill="#FFFFFF"/><path d="M164.7344055,224.8191986v9.7951965c62.1162567,0,112.650116,50.5370636,112.650116,112.6528168h9.7957458    C287.1802673,279.7514648,232.2506714,224.8191986,164.7344055,224.8191986z" fill="#FFFFFF"/><path d="M164.7344055,269.2287903v9.7957458c37.6298676,0,68.2431946,30.6154785,68.2431946,68.2426758h9.7957306    C242.7733307,304.235199,207.764267,269.2287903,164.7344055,269.2287903z" fill="#FFFFFF"/><path d="M164.7333374,318.5338745c-15.8384094,0-28.7274628,12.8901367-28.7274628,28.7333374    c0,15.8373108,12.8890533,28.7279968,28.7274628,28.7279968c15.8437347,0,28.7329102-12.890686,28.7329102-28.7279968    C193.4662476,331.4240112,180.5770721,318.5338745,164.7333374,318.5338745z" fill="#FFFFFF"/></g></g></svg>