<?xml version="1.0" encoding="iso-8859-1"?>
<!-- Generator: Adobe Illustrator 19.0.0, SVG Export Plug-In . SVG Version: 6.00 Build 0)  -->
<svg version="1.1" id="Layer_1" xmlns="http://www.w3.org/2000/svg" xmlns:xlink="http://www.w3.org/1999/xlink" x="0px" y="0px"
	 viewBox="0 0 391.455 391.455" style="enable-background:new 0 0 391.455 391.455;" xml:space="preserve">
<path style="fill:#80D440;" d="M228.8,382.81L383.6,8.41L8,162.01l137.6,44.4l-104,104c-6.4,6.4-6.4,16.4,0,22.8l16.8,16.8
	c6.4,6.4,16.4,6.4,22.8,0l103.6-103.6L228.8,382.81z"/>
<path style="fill:#6EA62A;" d="M228.8,390.81C228.8,390.81,228.4,390.81,228.8,390.81c-3.6,0-6.4-2.4-7.6-5.6l-40-124l-94.4,94.4
	c-4.8,4.8-10.8,7.2-17.2,7.2s-12.4-2.4-17.2-7.2L36,338.81c-4.8-4.8-7.2-10.8-7.2-17.2s2.4-12.4,7.2-17.2l94.8-94.8l-125.2-40
	c-3.2-1.2-5.6-4-5.6-7.2s2-6.4,4.8-7.6L380.4,1.21c2.8-1.2,6.4-0.4,8.8,1.6s2.8,5.6,1.6,8.8L236,386.01
	C234.8,388.81,232,390.81,228.8,390.81z M184.8,238.41c0.8,0,1.2,0,2,0.4c2.8,0.8,4.8,2.8,5.6,5.2l37.2,115.6l139.2-336.4
	l-337.6,138l116.8,37.6c2.8,0.8,4.8,3.2,5.2,5.6c0.8,2.8,0,5.6-2,7.6l-104,104c-1.6,1.6-2.4,3.6-2.4,5.6s0.8,4,2.4,5.6l16.8,16.8
	c3.2,3.2,8.4,3.2,11.6,0l103.6-103.6C180.8,239.21,182.8,238.41,184.8,238.41z"/>
<polygon style="fill:#67CB1B;" points="228,358.81 370.8,20.41 200,262.81 "/>
<g>
</g>
<g>
</g>
<g>
</g>
<g>
</g>
<g>
</g>
<g>
</g>
<g>
</g>
<g>
</g>
<g>
</g>
<g>
</g>
<g>
</g>
<g>
</g>
<g>
</g>
<g>
</g>
<g>
</g>
</svg>
