<?xml version="1.0" ?><svg enable-background="new 0 0 512 512" id="Layer_1" version="1.1" viewBox="0 0 512 512" xml:space="preserve" xmlns="http://www.w3.org/2000/svg" xmlns:xlink="http://www.w3.org/1999/xlink"><g><g><linearGradient gradientUnits="userSpaceOnUse" id="SVGID_1_" x1="0.0000038" x2="512" y1="256" y2="256"><stop offset="0" style="stop-color:#E24263"/><stop offset="1" style="stop-color:#DD1E47"/></linearGradient><circle cx="256" cy="256" fill="url(#SVGID_1_)" r="256"/><linearGradient gradientUnits="userSpaceOnUse" id="SVGID_2_" x1="42.6666679" x2="469.3333435" y1="256.0005188" y2="256.0005188"><stop offset="0" style="stop-color:#DD1E47"/><stop offset="1" style="stop-color:#E24263"/></linearGradient><path d="M256,469.3338623c-117.6314697,0-213.3333282-95.7023926-213.3333282-213.3333435    c0-117.6314545,95.7018585-213.333313,213.3333282-213.333313c117.6357422,0,213.3333435,95.7018661,213.3333435,213.333313    C469.3333435,373.6314697,373.6357422,469.3338623,256,469.3338623z" fill="url(#SVGID_2_)"/></g><g><path d="M144,227.1365356v73.7290649c0,5.5226746,4.4773407,10,10,10h29.7973328v-93.7290649H154    C148.4773407,217.1365356,144,221.6138611,144,227.1365356z" opacity="0.3"/><path d="M266.9722595,166.8618622l-73.7610626,50.2736053v93.7290649l73.7610626,50.2730713    c6.2810669,4.5759888,15.1013489,0.0890503,15.1013489-7.6821289l-0.0005493-178.9114685    C282.0730591,166.7722626,273.2533264,162.2858582,266.9722595,166.8618622z" opacity="0.3"/><polygon opacity="0.3" points="383.9995728,231.5797272 376.9290771,224.5098724 344.5098572,256.9290771     312.0906677,224.5098724 305.0202637,231.5797272 337.4395447,263.9994812 305.0202637,296.4186707 312.0906677,303.4890747     344.5098572,271.0698547 376.9290771,303.4890747 383.9995728,296.4186707 351.5802612,263.9994812   "/></g><g><path d="M136,219.1365356v73.7290649c0,5.5226746,4.4773407,10,10,10h29.7973328v-93.7290649H146    C140.4773407,209.1365356,136,213.6138611,136,219.1365356z" fill="#FFFFFF"/><path d="M258.9722595,158.8618622l-73.7610626,50.2736053v93.7290649l73.7610626,50.2730713    c6.2810669,4.5759888,15.1013489,0.0890503,15.1013489-7.6821289l-0.0005493-178.9114685    C274.0730591,158.7722626,265.2533264,154.2858582,258.9722595,158.8618622z" fill="#FFFFFF"/><polygon fill="#FFFFFF" points="375.9995728,223.5797272 368.9290771,216.5098724 336.5098572,248.9290619     304.0906677,216.5098724 297.0202637,223.5797272 329.4395447,255.9994659 297.0202637,288.4186707 304.0906677,295.4890747     336.5098572,263.0698547 368.9290771,295.4890747 375.9995728,288.4186707 343.5802612,255.9994659   "/></g></g></svg>