<?xml version="1.0" ?><svg enable-background="new 0 0 512 512" id="Layer_1" version="1.1" viewBox="0 0 512 512" xml:space="preserve" xmlns="http://www.w3.org/2000/svg" xmlns:xlink="http://www.w3.org/1999/xlink"><g><g><linearGradient gradientUnits="userSpaceOnUse" id="SVGID_1_" x1="0.0000038" x2="512" y1="256" y2="256"><stop offset="0" style="stop-color:#8DC63F"/><stop offset="1" style="stop-color:#76B83F"/></linearGradient><circle cx="256" cy="256" fill="url(#SVGID_1_)" r="256"/><linearGradient gradientUnits="userSpaceOnUse" id="SVGID_2_" x1="42.6666679" x2="469.3333435" y1="256.0005188" y2="256.0005188"><stop offset="0" style="stop-color:#76B83F"/><stop offset="1" style="stop-color:#8DC63F"/></linearGradient><path d="M256,469.3338623c-117.6314697,0-213.3333282-95.7023926-213.3333282-213.3333435    c0-117.6314545,95.7018585-213.333313,213.3333282-213.333313c117.6357422,0,213.3333435,95.7018661,213.3333435,213.333313    C469.3333435,373.6314697,373.6357422,469.3338623,256,469.3338623z" fill="url(#SVGID_2_)"/></g><g><path d="M146.1296082,217.1834717v93.6368103c0,5.5231934,4.4779663,10,10,10h59.7109222V207.1834717h-59.7109222    C150.6075745,207.1834717,146.1296082,211.6607971,146.1296082,217.1834717z" opacity="0.3"/><path d="M299.5072021,146.2298584l-73.6672058,53.6672058v128.2058716l73.6672058,53.6666565    c7.6154785,5.5477295,18.3088074,0.1082764,18.3088074-9.3125305V155.5440063    C317.8160095,146.1221313,307.1226807,140.6821289,299.5072021,146.2298584z" opacity="0.3"/><path d="M356.3477173,202.2944031l-7.0698547,7.06987    c14.5701294,14.5706635,22.5925293,33.9754639,22.5925293,54.6394501c0,20.6586914-8.0223999,40.0634766-22.5925293,54.6330872    l7.0698547,7.0709229c16.4602661-16.4554749,25.5226746-38.3690796,25.5226746-61.70401    C381.8703918,240.6634674,372.8079834,218.7493286,356.3477173,202.2944031z" opacity="0.3"/></g><g><path d="M138.1296082,209.1834717v93.6368103c0,5.5231934,4.4779663,10,10,10h59.7109222V199.1834717h-59.7109222    C142.6075745,199.1834717,138.1296082,203.6607971,138.1296082,209.1834717z" fill="#FFFFFF"/><path d="M291.5072021,138.2298584l-73.6672058,53.6672058v128.2058716l73.6672058,53.6666565    c7.6154785,5.5477295,18.3088074,0.1082764,18.3088074-9.3125305V147.5440063    C309.8160095,138.1221313,299.1226807,132.6821289,291.5072021,138.2298584z" fill="#FFFFFF"/><path d="M348.3477173,194.2944031l-7.0698547,7.06987    c14.5701294,14.5706635,22.5925293,33.9754639,22.5925293,54.6394501c0,20.6586914-8.0223999,40.0634766-22.5925293,54.6330872    l7.0698547,7.0709229c16.4602661-16.4554749,25.5226746-38.3690796,25.5226746-61.70401    C373.8703918,232.6634674,364.8079834,210.7493286,348.3477173,194.2944031z" fill="#FFFFFF"/></g></g></svg>