<?xml version="1.0" encoding="UTF-8" standalone="no"?>
<!-- Generator: Adobe Illustrator 19.0.0, SVG Export Plug-In . SVG Version: 6.00 Build 0)  -->

<svg
   xmlns:dc="http://purl.org/dc/elements/1.1/"
   xmlns:cc="http://creativecommons.org/ns#"
   xmlns:rdf="http://www.w3.org/1999/02/22-rdf-syntax-ns#"
   xmlns:svg="http://www.w3.org/2000/svg"
   xmlns="http://www.w3.org/2000/svg"
   xmlns:sodipodi="http://sodipodi.sourceforge.net/DTD/sodipodi-0.dtd"
   xmlns:inkscape="http://www.inkscape.org/namespaces/inkscape"
   version="1.1"
   id="Layer_1"
   x="0px"
   y="0px"
   viewBox="0 0 489 489"
   style="enable-background:new 0 0 489 489;"
   xml:space="preserve"
   sodipodi:docname="transfer.svg"
   inkscape:version="0.92.2 5c3e80d, 2017-08-06"><metadata
     id="metadata105"><rdf:RDF><cc:Work
         rdf:about=""><dc:format>image/svg+xml</dc:format><dc:type
           rdf:resource="http://purl.org/dc/dcmitype/StillImage" /><dc:title></dc:title></cc:Work></rdf:RDF></metadata><defs
     id="defs103" /><sodipodi:namedview
     pagecolor="#ffffff"
     bordercolor="#666666"
     borderopacity="1"
     objecttolerance="10"
     gridtolerance="10"
     guidetolerance="10"
     inkscape:pageopacity="0"
     inkscape:pageshadow="2"
     inkscape:window-width="971"
     inkscape:window-height="697"
     id="namedview101"
     showgrid="false"
     inkscape:zoom="0.48261759"
     inkscape:cx="306.50163"
     inkscape:cy="244.5"
     inkscape:window-x="271"
     inkscape:window-y="27"
     inkscape:window-maximized="0"
     inkscape:current-layer="Layer_1" /><path
     d="M 389.96478,252.85665 V 78.710292 l 58.03342,54.189828 c 9.23258,8.6211 24.5323,8.6211 33.76489,0 4.74819,-4.43372 7.12229,-10.09902 7.12229,-15.76432 0,-5.6653 -2.3741,-11.3306 -7.12229,-15.76431 L 382.84249,9.0024831 c -9.2326,-8.62110734 -24.53232,-8.62110734 -33.76489,0 L 250.157,101.37149 c -9.2326,8.62111 -9.2326,22.90751 0,31.52863 9.23257,8.6211 24.53229,8.6211 33.76488,0 L 341.95531,78.710292 V 252.85665 c 0,102.71434 -89.42424,186.21592 -199.42395,186.21592 H 25.673167 c -13.189414,0 -24.0047314,10.09901 -24.0047314,22.41489 0,12.31585 10.8153174,22.41486 24.0047314,22.41486 H 142.53136 c 136.37854,0 247.43342,-103.45327 247.43342,-231.04567 z"
     id="path4"
     inkscape:connector-curvature="0"
     style="stroke-width:2.54903173" /><g
     id="g70" /><g
     id="g72" /><g
     id="g74" /><g
     id="g76" /><g
     id="g78" /><g
     id="g80" /><g
     id="g82" /><g
     id="g84" /><g
     id="g86" /><g
     id="g88" /><g
     id="g90" /><g
     id="g92" /><g
     id="g94" /><g
     id="g96" /><g
     id="g98" /></svg>