<?xml version="1.0" encoding="UTF-8"?>
<svg xmlns:cc="http://creativecommons.org/ns#" xmlns:dc="http://purl.org/dc/elements/1.1/" xmlns:rdf="http://www.w3.org/1999/02/22-rdf-syntax-ns#" enable-background="new 0 0 512 512" version="1.1" viewBox="0 0 512 512" xmlns="http://www.w3.org/2000/svg" xml:space="preserve"><metadata><rdf:RDF><cc:Work rdf:about=""><dc:format>image/svg+xml</dc:format><dc:type rdf:resource="http://purl.org/dc/dcmitype/StillImage"/><dc:title/></cc:Work></rdf:RDF></metadata><g transform="translate(0 .00074992)"><linearGradient gradientUnits="userSpaceOnUse" id="SVGID_1_" x1="3.8e-6" x2="512" y1="256" y2="256"><stop offset="0" stop-color="#F67950"/><stop offset="1" stop-color="#F15A29"/></linearGradient><circle cx="256" cy="256" fill="url(#SVGID_1_)" r="256"/><linearGradient gradientUnits="userSpaceOnUse" id="SVGID_2_" x1="42.667" x2="469.33" y1="256" y2="256"><stop offset="0" stop-color="#F15A29"/><stop offset="1" stop-color="#F67950"/></linearGradient><path d="m256 469.33c-117.63 0-213.33-95.702-213.33-213.33 0-117.63 95.702-213.33 213.33-213.33 117.64 0 213.33 95.702 213.33 213.33 0 117.63-95.698 213.33-213.33 213.33z" fill="url(#SVGID_2_)"/></g><g clip-rule="evenodd" fill-opacity=".33333" fill-rule="evenodd" stroke-width=".5" transform="translate(-3.9995 -3.9993)"><path d="m264.11 280c39.461 0 71.89-32.422 71.89-71.875 0-39.683-32.429-72.105-71.89-72.105-39.68 0-72.11 32.422-72.11 72.105 0 39.453 32.429 71.875 72.11 71.875z"/><path d="m272.04 384.06v-104.53c-2.719 0.2265-5.437 0.453-7.9374 0.453-2.719 0-5.4375-0.2265-8.16-0.453v104.53c0 4.304 3.629 7.9364 8.16 7.9364 4.3125 0 7.9374-3.6325 7.9374-7.9364z"/></g><g clip-rule="evenodd" fill-rule="evenodd" stroke-width=".5"><path d="m252.11 267.98c39.461 0 71.89-32.422 71.89-71.875 0-39.683-32.429-72.105-71.89-72.105-39.68 0-72.11 32.422-72.11 72.105 0 39.453 32.429 71.875 72.11 71.875z" fill="#f8f8f8"/><path d="m284.08 178.42c8.617 0 15.875-7.257 15.875-16.099 0-8.8424-7.2585-15.873-15.875-15.873-8.844 0-16.101 7.031-16.101 15.873 0 8.8424 7.2575 16.099 16.101 16.099z" fill="#fff"/><path d="m260.04 372.06v-104.53c-2.719 0.2265-5.437 0.453-7.9374 0.453-2.719 0-5.4375-0.2265-8.16-0.453v104.53c0 4.304 3.629 7.9364 8.16 7.9364 4.3125 0 7.9374-3.6325 7.9374-7.9364z" fill="#f0f0f0"/><path d="m243.95 267.98v15.646l16.097-16.099c-2.719 0.2265-5.437 0.453-7.9374 0.453-2.719 0-5.4375-0.2265-8.16-0.453z" fill="#c8c8c8"/><path d="m260.96 250.08c-34.699 0-62.82-28.344-62.82-63.035 0-33.332 25.851-60.545 58.51-62.81-1.5855-0.2265-2.9455-0.2265-4.539-0.2265-39.906 0-72.11 32.196-72.11 72.105 0 39.679 32.203 71.875 72.11 71.875 39.688 0 71.89-32.196 71.89-71.875 0-1.5895 0-3.1755-0.2265-4.761-2.039 32.875-29.477 58.73-62.81 58.73z" fill="#f0f0f0"/></g></svg>
